<svg width="81" height="81" viewBox="0 0 81 81" fill="none" xmlns="http://www.w3.org/2000/svg">
<g clip-path="url(#clip0)">
<path d="M6 77.5H44.5C47.4823 77.5 49.4501 75.9823 49.4501 73V63.6785C52.842 63.0988 55.4989 60.4419 56.0786 57.05H65.6501C66.3957 57.05 67.0001 56.4456 67.0001 55.7V51.65C66.9909 49.1951 65.327 47.0554 62.9501 46.4417V31.4C62.9389 25.1045 58.9628 19.4989 53.0249 17.4073C53.6781 15.9593 53.657 14.2965 52.9672 12.8656C52.2775 11.4347 50.9897 10.3825 49.4501 9.9917V4.4C49.4501 1.41766 47.0324 -1 44.0501 -1H6.2501C3.26776 -1 0.850098 1.41766 0.850098 4.4V73C0.850098 75.9823 3.01766 77.5 6 77.5ZM48.1001 61.1C45.6452 61.0908 43.5055 59.4269 42.8918 57.05H53.3084C52.6947 59.4269 50.555 61.0908 48.1001 61.1ZM64.3001 51.65V54.35H31.9001V51.65C31.9001 50.1588 33.1089 48.95 34.6001 48.95H61.6001C63.0913 48.95 64.3001 50.1588 64.3001 51.65ZM60.2501 31.4V46.25H35.9501V31.4C35.9501 24.6897 41.3898 19.25 48.1001 19.25C54.8104 19.25 60.2501 24.6897 60.2501 31.4ZM50.8001 15.2C50.8008 15.7486 50.6325 16.284 50.3181 16.7336C48.8496 16.4888 47.3506 16.4888 45.882 16.7336C45.5677 16.284 45.3994 15.7486 45.4001 15.2C45.4001 13.7088 46.6089 12.5 48.1001 12.5C49.5913 12.5 50.8001 13.7088 50.8001 15.2ZM35.5329 1.7L33.8009 3.5468C33.2908 4.09083 32.5784 4.39964 31.8326 4.4H18.4676C17.7216 4.39905 17.0089 4.09037 16.4979 3.5468L14.7672 1.7H35.5329ZM3.5501 4.4C3.5501 2.90883 4.75893 1.7 6.2501 1.7H11.0655L14.5283 5.3936C15.5508 6.48006 16.9757 7.09729 18.4676 7.1H31.8326C33.3247 7.09826 34.75 6.48086 35.7719 5.3936L39.2346 1.7H44.0501C45.5413 1.7 46.7501 2.90883 46.7501 4.4V9.9917C45.2105 10.3825 43.9227 11.4347 43.233 12.8656C42.5432 14.2965 42.5221 15.9593 43.1753 17.4073C37.2374 19.4989 33.2613 25.1045 33.2501 31.4V46.4417C30.8732 47.0554 29.2093 49.1951 29.2001 51.65V55.7C29.2001 56.4456 29.8045 57.05 30.5501 57.05H40.1216C40.7013 60.4419 43.3582 63.0988 46.7501 63.6785V67.85C46.7501 69.3412 46.7501 74.6 45.5002 74.6H4.50024C3.5501 74.6 3.5501 69.3412 3.5501 67.85V4.4Z" fill="white"/>
<path d="M12.1503 44.55C12.8959 44.55 13.5003 43.9456 13.5003 43.2C13.51 34.257 20.7573 27.0097 29.7003 27C30.4459 27 31.0503 26.3956 31.0503 25.65C31.0503 24.9044 30.4459 24.3 29.7003 24.3C19.2667 24.3111 10.8115 32.7664 10.8003 43.2C10.8003 43.9456 11.4047 44.55 12.1503 44.55Z" fill="white"/>
<path d="M29.7002 29.7C22.2477 29.7082 16.2084 35.7476 16.2002 43.2C16.2002 43.9456 16.8046 44.55 17.5502 44.55C18.2958 44.55 18.9002 43.9456 18.9002 43.2C18.9069 37.2381 23.7383 32.4067 29.7002 32.4C30.4458 32.4 31.0502 31.7956 31.0502 31.05C31.0502 30.3044 30.4458 29.7 29.7002 29.7Z" fill="white"/>
<path d="M29.7001 35.1C25.2284 35.1044 21.6046 38.7283 21.6001 43.2C21.6001 43.9456 22.2045 44.55 22.9501 44.55C23.6957 44.55 24.3001 43.9456 24.3001 43.2C24.3001 40.2176 26.7178 37.8 29.7001 37.8C30.4457 37.8 31.0501 37.1956 31.0501 36.45C31.0501 35.7044 30.4457 35.1 29.7001 35.1Z" fill="white"/>
<path d="M60.7501 78.3C60.0046 78.3 59.4001 78.9044 59.4001 79.65C59.4001 80.3956 60.0046 81 60.7501 81C71.1837 80.9888 79.639 72.5336 79.6501 62.1C79.6501 61.3544 79.0457 60.75 78.3001 60.75C77.5546 60.75 76.9501 61.3544 76.9501 62.1C76.9405 71.043 69.6931 78.2903 60.7501 78.3Z" fill="white"/>
<path d="M60.7501 72.9C60.0046 72.9 59.4001 73.5044 59.4001 74.25C59.4001 74.9956 60.0046 75.6 60.7501 75.6C68.2026 75.5918 74.242 69.5525 74.2501 62.1C74.2501 61.3544 73.6457 60.75 72.9001 60.75C72.1546 60.75 71.5501 61.3544 71.5501 62.1C71.5435 68.0619 66.712 72.8933 60.7501 72.9Z" fill="white"/>
<path d="M66.1501 62.1C66.1501 65.0823 63.7325 67.5 60.7501 67.5C60.0046 67.5 59.4001 68.1044 59.4001 68.85C59.4001 69.5956 60.0046 70.2 60.7501 70.2C65.2218 70.1955 68.8457 66.5717 68.8501 62.1C68.8501 61.3544 68.2457 60.75 67.5001 60.75C66.7546 60.75 66.1501 61.3544 66.1501 62.1Z" fill="white"/>
</g>
<defs>
<clipPath id="clip0">
<rect width="81" height="81" fill="white"/>
</clipPath>
</defs>
</svg>
