<svg width="122" height="122" viewBox="0 0 122 122" fill="none" xmlns="http://www.w3.org/2000/svg">
<g clip-path="url(#clip0)">
<path d="M95.1934 91.7443H12.5098C11.5228 91.7443 10.7227 91.5444 10.7227 92.5314C10.7227 93.5183 11.5228 93.3185 12.5098 93.3185H54H95.1934C96.1803 93.3185 96.9805 93.5183 96.9805 92.5314C96.9805 91.5444 96.1803 91.7443 95.1934 91.7443ZM95.1934 84.5958H12.5098C11.5228 84.5958 10.7227 84.396 10.7227 85.3829C10.7227 86.3699 11.5228 86.1701 12.5098 86.1701H95.1934C96.1803 86.1701 96.9805 86.3699 96.9805 85.3829C96.9805 84.396 96.1803 84.5958 95.1934 84.5958ZM105.916 60.3043C104.929 60.3043 104.129 61.1045 104.129 62.0914V96.1056C104.129 99.062 101.724 101.467 98.7676 101.467H8.93555C5.97919 101.467 3.57422 99.062 3.57422 96.1056V39.0077C3.57422 36.0513 5.97919 33.6464 8.93555 33.6464H64.7756C65.7625 33.6464 66.5627 32.8462 66.5627 31.8593C66.5627 30.8723 65.7625 30.0721 64.7756 30.0721H8.93555C4.00837 30.0721 0 34.0805 0 39.0077V96.1056C0 101.033 4.00837 105.041 8.93555 105.041H98.7676C103.695 105.041 107.703 101.033 107.703 96.1056V62.0914C107.703 61.1045 106.903 60.3043 105.916 60.3043ZM96.0686 6.95886C81.7698 6.95886 70.1369 18.5918 70.1369 32.8903C70.1369 35.6458 70.7003 39.0484 71.5 41.5418H58.9746C57.9876 41.5418 57.1875 41.513 57.1875 42.5C57.1875 43.487 57.9876 43.5 58.9746 43.5H72C72.6205 44.7515 74.1934 47.8725 75 49H58.9746C58 49 57.1875 49.013 57.1875 50C57.1875 50.987 57.9876 51 58.9746 51H77C81.6694 55.5188 89.0729 58.822 96.0683 58.822C110.367 58.822 122 47.1891 122 32.8903C122 18.5918 110.367 6.95886 96.0686 6.95886ZM96.0686 55.2477C83.7406 55.2477 73.7111 45.2182 73.7111 32.8903C73.7111 20.5626 83.7406 10.5331 96.0686 10.5331C108.396 10.5331 118.426 20.5626 118.426 32.8903C118.426 45.2182 108.396 55.2477 96.0686 55.2477ZM17.2313 79.684C17.776 79.836 18.6086 79.9968 19.6582 80.0216H41.0142C45.5599 80.1105 50.0436 76.0497 49.9497 71.0861V49.7303C49.9497 44.8032 45.9413 40.7948 41.0142 40.7948H19.6582C14.731 40.7948 10.7227 44.8032 10.7227 49.7303V71.0861C10.7227 75.1719 13.4803 78.6236 17.2313 79.684ZM19.8719 76.4474C21.2933 71.9737 25.5128 68.7816 30.3361 68.7816C35.1596 68.7816 39.3791 71.9737 40.8002 76.4474H19.8719ZM23.491 58.3626C23.491 54.5882 26.5617 51.5175 30.3361 51.5175C34.1104 51.5175 37.1812 54.5882 37.1812 58.3626C37.1812 62.1369 34.1104 65.2077 30.3361 65.2077C26.5617 65.2077 23.491 62.1367 23.491 58.3626ZM14.2969 49.7303C14.2969 46.774 16.7018 44.369 19.6582 44.369H41.0142C43.9705 44.369 46.3755 46.774 46.3755 49.7303V71.0861C46.3755 72.8448 45.5241 74.4082 44.2121 75.3866C42.99 71.525 40.1983 68.382 36.6338 66.6559C39.136 64.7511 40.7554 61.7428 40.7554 58.3626C40.7554 52.6174 36.0813 47.9432 30.3361 47.9432C24.5909 47.9432 19.9167 52.6174 19.9167 58.3626C19.9167 61.7428 21.5359 64.7511 24.0383 66.6559C20.4741 68.382 17.6824 71.525 16.4602 75.3866C15.1483 74.4082 14.2969 72.8448 14.2969 71.0861V49.7303ZM104.987 26.6168L92.5889 39.0146C92.4155 39.1878 92.1341 39.1878 91.9606 39.0146L87.1502 34.2042C86.4523 33.5063 85.3207 33.5063 84.623 34.2042C83.925 34.9021 83.925 36.0337 84.623 36.7314L89.4334 41.5418C90.2169 42.3253 91.2458 42.717 92.2749 42.717C93.304 42.717 94.3329 42.3253 95.1164 41.5418L107.514 29.144C108.212 28.4461 108.212 27.3145 107.514 26.6168C106.816 25.9189 105.684 25.9189 104.987 26.6168ZM95.1934 70.299H58.9746C57.9876 70.299 57.1875 70.0991 57.1875 71.0861C57.1875 72.073 57.9876 71.8732 58.9746 71.8732H95.1934C96.1803 71.8732 96.9805 72.073 96.9805 71.0861C96.9805 70.0991 96.1803 70.299 95.1934 70.299ZM95.1934 77.4474H58.9746C57.9876 77.4474 57.1875 77.2475 57.1875 78.2345C57.1875 79.2215 57.9876 79.0216 58.9746 79.0216H95.1934C96.1803 79.0216 96.9805 79.2215 96.9805 78.2345C96.9805 77.2475 96.1803 77.4474 95.1934 77.4474Z" fill="white"/>
</g>
<defs>
<clipPath id="clip0">
<rect width="122" height="122" fill="white"/>
</clipPath>
</defs>
</svg>
