<svg width="100" height="100" viewBox="0 0 100 100" fill="none" xmlns="http://www.w3.org/2000/svg">
<g clip-path="url(#clip0)">
<path d="M29.6199 43.3855L29.6163 43.4491C29.3699 47.7646 31.7872 51.8073 35.7762 53.7454L35.8172 53.7654C37.2235 54.4382 38.3762 55.5472 39.1035 56.9263L39.1199 56.9563C41.1298 60.7836 45.2871 63.1036 49.7189 62.8708L49.7862 62.8672C51.3934 62.7772 52.9889 63.1917 54.3489 64.0536C58.1016 66.4008 62.8652 66.4008 66.6179 64.0536C67.9779 63.1917 69.5733 62.7772 71.1806 62.8672L71.2478 62.8708C75.6724 63.1054 79.8351 60.7836 81.8496 56.95L81.8596 56.9291C82.5896 55.5463 83.745 54.4354 85.1559 53.7618L85.1887 53.7454C89.1777 51.8064 91.5959 47.7646 91.3486 43.4482L91.345 43.3882C91.2632 41.8682 91.685 40.3637 92.5468 39.1083C95.0277 35.4901 95.0277 30.7192 92.5477 27.1001C91.6868 25.8456 91.2632 24.342 91.345 22.822L91.3486 22.7584C91.5959 18.442 89.1777 14.4002 85.185 12.4602L85.1487 12.4421C83.745 11.7712 82.595 10.6675 81.8669 9.29207L81.846 9.25117C79.8351 5.42392 75.6724 3.10484 71.2478 3.33666L71.1797 3.34029C69.5733 3.43029 67.9779 3.01575 66.6188 2.15394H66.617C62.8643 -0.193321 58.1007 -0.193321 54.3479 2.15394C52.988 3.01484 51.3925 3.42938 49.7852 3.33938L49.718 3.33575C45.2926 3.1012 41.1308 5.42301 39.1208 9.24935L39.1053 9.27753C38.3771 10.6593 37.2235 11.7693 35.8153 12.443L35.7772 12.4611C31.7881 14.3993 29.3699 18.442 29.6172 22.7584L29.6208 22.8184C29.7026 24.3383 29.2808 25.8429 28.419 27.0974C25.9381 30.7165 25.9381 35.4883 28.419 39.1064C29.2799 40.361 29.7026 41.8655 29.6199 43.3855V43.3855ZM31.4835 29.212C32.8135 27.2756 33.4654 24.9538 33.3381 22.6084L33.3344 22.5447C33.2035 19.6847 34.809 17.0284 37.4008 15.8129L37.4326 15.7975C39.5589 14.7793 41.2998 13.103 42.398 11.0175L42.4162 10.983C43.7517 8.43935 46.5489 6.89754 49.5198 7.05573L49.5853 7.05845C51.9625 7.19209 54.3216 6.57936 56.3325 5.30483C58.8716 3.71665 62.0934 3.71665 64.6324 5.30483C66.6433 6.57755 69.0024 7.19118 71.3788 7.05936L71.4442 7.05573C74.4296 6.89936 77.2133 8.43935 78.5451 10.9757L78.5696 11.0221C79.6678 13.1048 81.4069 14.7784 83.5305 15.7957L83.5614 15.8111C86.1941 17.0911 87.7923 19.7338 87.6314 22.5456L87.6277 22.612C87.5005 24.9574 88.1532 27.2783 89.4832 29.2147C91.0904 31.5592 91.0895 34.6501 89.4814 36.9937C88.1523 38.931 87.5005 41.2528 87.6277 43.5982L87.6314 43.661C87.7923 46.4728 86.1941 49.1164 83.5605 50.3973L83.5332 50.41C81.4051 51.43 79.6623 53.1082 78.5633 55.1972L78.5496 55.2245C77.2133 57.7681 74.4205 59.3109 71.4451 59.1518L71.3806 59.1481C69.0033 59.0154 66.6433 59.629 64.6315 60.9027C62.0934 62.4899 58.8716 62.4899 56.3334 60.9027C54.5043 59.7436 52.3825 59.129 50.2171 59.1309C50.0071 59.1309 49.7962 59.1363 49.5853 59.1481L49.5198 59.1509C46.588 59.3372 43.8144 57.8027 42.4135 55.22L42.3944 55.1845C41.298 53.1027 39.5599 51.43 37.4371 50.4127L37.4026 50.3955C34.769 49.1155 33.1708 46.4718 33.3326 43.661L33.3363 43.5946C33.4626 41.2491 32.8099 38.9273 31.4808 36.9919C29.8745 34.6474 29.8754 31.5565 31.4835 29.2138V29.212Z" fill="#5AA378"/>
<path d="M99.7585 73.3062C97.2931 68.9308 91.8258 67.2644 87.3395 69.5208L72.755 76.4117C70.7414 72.6671 66.8787 70.2835 62.6278 70.1635L49.1643 69.7926C47.0325 69.7317 44.9407 69.1908 43.0452 68.2126L41.6752 67.5026C34.6607 63.8463 26.2999 63.8554 19.2927 67.5263L19.3781 64.4226C19.4063 63.3945 18.5963 62.5381 17.5681 62.5099L2.80458 62.1036C1.7764 62.0754 0.920952 62.8854 0.89277 63.9135L0.000957774 96.3124C-0.027224 97.3406 0.782771 98.197 1.81095 98.2251L16.5745 98.6315H16.6263C17.6345 98.6306 18.459 97.8279 18.4872 96.8206L18.529 95.2706L22.3645 93.217C23.8699 92.407 25.6308 92.2143 27.2753 92.6797L50.1779 99.1079C50.2179 99.1197 50.2579 99.1288 50.2988 99.1379C51.9543 99.4842 53.6415 99.6579 55.3333 99.657C58.9151 99.6588 62.4551 98.887 65.7105 97.3924C65.7905 97.3561 65.8678 97.3142 65.9415 97.267L99.1485 75.7862C99.9767 75.2517 100.244 74.1635 99.7585 73.3062V73.3062ZM3.77457 94.5534L4.56366 65.8781L15.6054 66.1817L14.8154 94.8579L3.77457 94.5534ZM64.0324 94.0652C59.9879 95.8906 55.4706 96.3943 51.1234 95.5052L28.2817 89.0952C25.7117 88.3679 22.959 88.6698 20.6072 89.9343L18.6472 90.9834L19.1727 71.9171C25.3826 67.7862 33.348 67.3617 39.9625 70.808L41.3325 71.518C43.727 72.7544 46.3688 73.4371 49.0625 73.5144L62.526 73.8853C66.3078 73.9935 69.5196 76.6862 70.2869 80.3916L50.2325 79.8398C49.2043 79.8116 48.3488 80.6216 48.3207 81.6498C48.2925 82.678 49.1025 83.5343 50.1306 83.5625L72.2623 84.1716H72.315C73.3223 84.1707 74.1469 83.368 74.175 82.3607C74.1978 81.5516 74.1369 80.7416 73.995 79.9453L88.9513 72.8771L88.9949 72.8562C91.1167 71.7817 93.6831 72.1408 95.4276 73.7562L64.0324 94.0652Z" fill="#5AA378"/>
<g clip-path="url(#clip1)">
<path d="M55.3267 28.0312H42.0718V15.0312H55.3267V28.0312Z" stroke="#5AA378" stroke-width="1.8799" stroke-miterlimit="10" stroke-linecap="square"/>
<path d="M78.5224 44.2813V37.7813H70.238V35.3438" stroke="#5AA378" stroke-width="1.8799" stroke-miterlimit="10" stroke-linecap="square"/>
<path d="M78.522 50.7812H65.2671" stroke="#5AA378" stroke-width="1.8799" stroke-miterlimit="10" stroke-linecap="square"/>
<path d="M50.3557 23.1562H47.042V19.9062H50.3557V23.1562Z" stroke="#5AA378" stroke-width="1.8799" stroke-miterlimit="10" stroke-linecap="square"/>
<path d="M78.522 28.0312H65.2671V15.0312H78.522V28.0312Z" stroke="#5AA378" stroke-width="1.8799" stroke-miterlimit="10" stroke-linecap="square"/>
<path d="M73.5518 23.1562H70.238V19.9062H73.5518V23.1562Z" stroke="#5AA378" stroke-width="1.8799" stroke-miterlimit="10" stroke-linecap="square"/>
<path d="M55.3264 50.7813H42.0715V37.7813H55.3264V50.7813Z" stroke="#5AA378" stroke-width="1.8799" stroke-miterlimit="10" stroke-linecap="square"/>
<path d="M50.3557 45.9062H47.042V42.6562H50.3557V45.9062Z" stroke="#5AA378" stroke-width="1.8799" stroke-miterlimit="10" stroke-linecap="square"/>
<path d="M73.5518 45.9062H70.238V42.6562H73.5518V45.9062Z" stroke="#5AA378" stroke-width="1.8799" stroke-miterlimit="10" stroke-linecap="square"/>
<path d="M61.1252 46.7188V43.4688H64.439V35.3438" stroke="#5AA378" stroke-width="1.8799" stroke-miterlimit="10" stroke-linecap="square"/>
<path d="M54.4978 33.7187V32.0937H60.2968V35.3437" stroke="#5AA378" stroke-width="1.8799" stroke-miterlimit="10" stroke-linecap="square"/>
<path d="M58.6399 22.3438H61.1252V18.2813" stroke="#5AA378" stroke-width="1.8799" stroke-miterlimit="10" stroke-linecap="square"/>
<path d="M76.0374 32.9063V37.7813" stroke="#5AA378" stroke-width="1.8799" stroke-miterlimit="10" stroke-linecap="square"/>
<path d="M42.0715 31.2812V32.9062H47.0421" stroke="#5AA378" stroke-width="1.8799" stroke-miterlimit="10" stroke-linecap="square"/>
</g>
</g>
<defs>
<clipPath id="clip0">
<rect width="100" height="100" fill="white"/>
</clipPath>
<clipPath id="clip1">
<rect x="40" y="13" width="39.7647" height="39" fill="white"/>
</clipPath>
</defs>
</svg>
