<svg width="122" height="122" viewBox="0 0 122 122" fill="none" xmlns="http://www.w3.org/2000/svg">
<path d="M95.1934 91.7443H12.5098C11.5228 91.7443 10.7227 91.5444 10.7227 92.5314C10.7227 93.5183 11.5228 93.3185 12.5098 93.3185H54H95.1934C96.1803 93.3185 96.9805 93.5183 96.9805 92.5314C96.9805 91.5444 96.1803 91.7443 95.1934 91.7443ZM95.1934 84.5958H12.5098C11.5228 84.5958 10.7227 84.396 10.7227 85.3829C10.7227 86.3699 11.5228 86.1701 12.5098 86.1701H95.1934C96.1803 86.1701 96.9805 86.3699 96.9805 85.3829C96.9805 84.396 96.1803 84.5958 95.1934 84.5958ZM105.916 60.3043C104.929 60.3043 104.129 61.1045 104.129 62.0914V96.1056C104.129 99.062 101.724 101.467 98.7676 101.467H8.93555C5.97919 101.467 3.57422 99.062 3.57422 96.1056V39.0077C3.57422 36.0513 5.97919 33.6464 8.93555 33.6464H64.7756C65.7625 33.6464 66.5627 32.8462 66.5627 31.8593C66.5627 30.8723 65.7625 30.0721 64.7756 30.0721H8.93555C4.00837 30.0721 0 34.0805 0 39.0077V96.1056C0 101.033 4.00837 105.041 8.93555 105.041H98.7676C103.695 105.041 107.703 101.033 107.703 96.1056V62.0914C107.703 61.1045 106.903 60.3043 105.916 60.3043ZM96.0686 6.95886C81.7698 6.95886 70.1369 18.5918 70.1369 32.8903C70.1369 35.6458 70.7003 39.0484 71.5 41.5418H58.9746C57.9876 41.5418 57.1875 41.513 57.1875 42.5C57.1875 43.487 57.9876 43.5 58.9746 43.5H72C72.6205 44.7515 74.1934 47.8725 75 49H58.9746C58 49 57.1875 49.013 57.1875 50C57.1875 50.987 57.9876 51 58.9746 51H77C81.6694 55.5188 89.0729 58.822 96.0683 58.822C110.367 58.822 122 47.1891 122 32.8903C122 18.5918 110.367 6.95886 96.0686 6.95886ZM96.0686 55.2477C83.7406 55.2477 73.7111 45.2182 73.7111 32.8903C73.7111 20.5626 83.7406 10.5331 96.0686 10.5331C108.396 10.5331 118.426 20.5626 118.426 32.8903C118.426 45.2182 108.396 55.2477 96.0686 55.2477ZM104.987 26.6168L92.5889 39.0146C92.4155 39.1878 92.1341 39.1878 91.9606 39.0146L87.1502 34.2042C86.4523 33.5063 85.3207 33.5063 84.623 34.2042C83.925 34.9021 83.925 36.0337 84.623 36.7314L89.4334 41.5418C90.2169 42.3253 91.2458 42.717 92.2749 42.717C93.304 42.717 94.3329 42.3253 95.1164 41.5418L107.514 29.144C108.212 28.4461 108.212 27.3145 107.514 26.6168C106.816 25.9189 105.684 25.9189 104.987 26.6168ZM95.1934 70.299H58.9746C57.9876 70.299 57.1875 70.0991 57.1875 71.0861C57.1875 72.073 57.9876 71.8732 58.9746 71.8732H95.1934C96.1803 71.8732 96.9805 72.073 96.9805 71.0861C96.9805 70.0991 96.1803 70.299 95.1934 70.299ZM95.1934 77.4474H58.9746C57.9876 77.4474 57.1875 77.2475 57.1875 78.2345C57.1875 79.2215 57.9876 79.0216 58.9746 79.0216H95.1934C96.1803 79.0216 96.9805 79.2215 96.9805 78.2345C96.9805 77.2475 96.1803 77.4474 95.1934 77.4474Z" fill="white"/>
<rect x="12" y="42" width="38" height="38" rx="5" stroke="white" stroke-width="2"/>
<g clip-path="url(#clip0)">
<path d="M28.4067 57.4062H19.4067V48.4062H28.4067V57.4062Z" stroke="white" stroke-width="1.8799" stroke-miterlimit="10" stroke-linecap="square"/>
<path d="M44.1565 68.6563V64.1563H38.5315V62.4688" stroke="white" stroke-width="1.8799" stroke-miterlimit="10" stroke-linecap="square"/>
<path d="M44.1563 73.1562H35.1562" stroke="white" stroke-width="1.8799" stroke-miterlimit="10" stroke-linecap="square"/>
<path d="M25.0315 54.0313H22.7815V51.7812H25.0315V54.0313Z" stroke="white" stroke-width="1.8799" stroke-miterlimit="10" stroke-linecap="square"/>
<path d="M44.1563 57.4062H35.1562V48.4062H44.1563V57.4062Z" stroke="white" stroke-width="1.8799" stroke-miterlimit="10" stroke-linecap="square"/>
<path d="M40.7815 54.0313H38.5315V51.7812H40.7815V54.0313Z" stroke="white" stroke-width="1.8799" stroke-miterlimit="10" stroke-linecap="square"/>
<path d="M28.4065 73.1563H19.4065V64.1563H28.4065V73.1563Z" stroke="white" stroke-width="1.8799" stroke-miterlimit="10" stroke-linecap="square"/>
<path d="M25.0315 69.7812H22.7815V67.5312H25.0315V69.7812Z" stroke="white" stroke-width="1.8799" stroke-miterlimit="10" stroke-linecap="square"/>
<path d="M40.7815 69.7812H38.5315V67.5312H40.7815V69.7812Z" stroke="white" stroke-width="1.8799" stroke-miterlimit="10" stroke-linecap="square"/>
<path d="M32.344 70.3438V68.0938H34.594V62.4688" stroke="white" stroke-width="1.8799" stroke-miterlimit="10" stroke-linecap="square"/>
<path d="M27.844 61.3438V60.2188H31.7815V62.4688" stroke="white" stroke-width="1.8799" stroke-miterlimit="10" stroke-linecap="square"/>
<path d="M30.6562 53.4688H32.3437V50.6563" stroke="white" stroke-width="1.8799" stroke-miterlimit="10" stroke-linecap="square"/>
<path d="M42.469 60.7813V64.1563" stroke="white" stroke-width="1.8799" stroke-miterlimit="10" stroke-linecap="square"/>
<path d="M19.4065 59.6562V60.7812H22.7815" stroke="white" stroke-width="1.8799" stroke-miterlimit="10" stroke-linecap="square"/>
</g>
<defs>
<clipPath id="clip0">
<rect x="18" y="47" width="27" height="27" fill="white"/>
</clipPath>
</defs>
</svg>
