<svg width="90" height="90" viewBox="0 0 90 90" fill="none" xmlns="http://www.w3.org/2000/svg">
<g clip-path="url(#clip0)">
<path d="M9.71209 47.2732C8.77609 47.2732 7.93609 47.0572 7.19209 46.6252C6.44809 46.1812 5.86009 45.5812 5.42809 44.8252C4.99609 44.0692 4.77409 43.2172 4.76209 42.2692V34.0612C4.76209 33.7852 4.84609 33.5632 5.01409 33.3952C5.19409 33.2272 5.41609 33.1432 5.68009 33.1432C5.95609 33.1432 6.17809 33.2272 6.34609 33.3952C6.51409 33.5632 6.59809 33.7852 6.59809 34.0612V38.9212C7.01809 38.4172 7.52209 38.0212 8.11009 37.7332C8.71009 37.4332 9.36409 37.2832 10.0721 37.2832C10.9481 37.2832 11.7341 37.5052 12.4301 37.9492C13.1261 38.3812 13.6721 38.9752 14.0681 39.7312C14.4761 40.4752 14.6801 41.3212 14.6801 42.2692C14.6801 43.2172 14.4581 44.0692 14.0141 44.8252C13.5821 45.5812 12.9941 46.1812 12.2501 46.6252C11.5061 47.0572 10.6601 47.2732 9.71209 47.2732ZM9.71209 45.6532C10.3241 45.6532 10.8701 45.5092 11.3501 45.2212C11.8301 44.9212 12.2081 44.5132 12.4841 43.9972C12.7721 43.4812 12.9161 42.9052 12.9161 42.2692C12.9161 41.6212 12.7721 41.0452 12.4841 40.5412C12.2081 40.0372 11.8301 39.6412 11.3501 39.3532C10.8701 39.0532 10.3241 38.9032 9.71209 38.9032C9.11209 38.9032 8.56609 39.0532 8.07409 39.3532C7.59409 39.6412 7.21609 40.0372 6.94009 40.5412C6.66409 41.0452 6.52609 41.6212 6.52609 42.2692C6.52609 42.9052 6.66409 43.4812 6.94009 43.9972C7.21609 44.5132 7.59409 44.9212 8.07409 45.2212C8.56609 45.5092 9.11209 45.6532 9.71209 45.6532ZM18.5163 47.2012C18.2523 47.2012 18.0303 47.1172 17.8503 46.9492C17.6823 46.7692 17.5983 46.5472 17.5983 46.2832V38.2732C17.5983 37.9972 17.6823 37.7752 17.8503 37.6072C18.0303 37.4392 18.2523 37.3552 18.5163 37.3552C18.7923 37.3552 19.0143 37.4392 19.1823 37.6072C19.3503 37.7752 19.4343 37.9972 19.4343 38.2732V46.2832C19.4343 46.5472 19.3503 46.7692 19.1823 46.9492C19.0143 47.1172 18.7923 47.2012 18.5163 47.2012ZM18.5163 35.7532C18.1923 35.7532 17.9103 35.6392 17.6703 35.4112C17.4423 35.1712 17.3283 34.8892 17.3283 34.5652C17.3283 34.2412 17.4423 33.9652 17.6703 33.7372C17.9103 33.4972 18.1923 33.3772 18.5163 33.3772C18.8403 33.3772 19.1163 33.4972 19.3443 33.7372C19.5843 33.9652 19.7043 34.2412 19.7043 34.5652C19.7043 34.8892 19.5843 35.1712 19.3443 35.4112C19.1163 35.6392 18.8403 35.7532 18.5163 35.7532ZM27.8 47.2732C26.864 47.2732 26.024 47.0572 25.28 46.6252C24.536 46.1812 23.948 45.5812 23.516 44.8252C23.084 44.0692 22.862 43.2172 22.85 42.2692V34.0612C22.85 33.7852 22.934 33.5632 23.102 33.3952C23.282 33.2272 23.504 33.1432 23.768 33.1432C24.044 33.1432 24.266 33.2272 24.434 33.3952C24.602 33.5632 24.686 33.7852 24.686 34.0612V38.9212C25.106 38.4172 25.61 38.0212 26.198 37.7332C26.798 37.4332 27.452 37.2832 28.16 37.2832C29.036 37.2832 29.822 37.5052 30.518 37.9492C31.214 38.3812 31.76 38.9752 32.156 39.7312C32.564 40.4752 32.768 41.3212 32.768 42.2692C32.768 43.2172 32.546 44.0692 32.102 44.8252C31.67 45.5812 31.082 46.1812 30.338 46.6252C29.594 47.0572 28.748 47.2732 27.8 47.2732ZM27.8 45.6532C28.412 45.6532 28.958 45.5092 29.438 45.2212C29.918 44.9212 30.296 44.5132 30.572 43.9972C30.86 43.4812 31.004 42.9052 31.004 42.2692C31.004 41.6212 30.86 41.0452 30.572 40.5412C30.296 40.0372 29.918 39.6412 29.438 39.3532C28.958 39.0532 28.412 38.9032 27.8 38.9032C27.2 38.9032 26.654 39.0532 26.162 39.3532C25.682 39.6412 25.304 40.0372 25.028 40.5412C24.752 41.0452 24.614 41.6212 24.614 42.2692C24.614 42.9052 24.752 43.4812 25.028 43.9972C25.304 44.5132 25.682 44.9212 26.162 45.2212C26.654 45.5092 27.2 45.6532 27.8 45.6532ZM39.0882 47.2012C38.4882 47.2012 37.9482 47.0512 37.4682 46.7512C36.9882 46.4392 36.6102 46.0192 36.3342 45.4912C36.0582 44.9632 35.9202 44.3692 35.9202 43.7092V39.2632H35.0922C34.8402 39.2632 34.6362 39.1912 34.4802 39.0472C34.3242 38.9032 34.2462 38.7232 34.2462 38.5072C34.2462 38.2672 34.3242 38.0752 34.4802 37.9312C34.6362 37.7872 34.8402 37.7152 35.0922 37.7152H35.9202V35.1232C35.9202 34.8592 36.0042 34.6432 36.1722 34.4752C36.3402 34.3072 36.5562 34.2232 36.8202 34.2232C37.0842 34.2232 37.3002 34.3072 37.4682 34.4752C37.6362 34.6432 37.7202 34.8592 37.7202 35.1232V37.7152H39.2502C39.5022 37.7152 39.7062 37.7872 39.8622 37.9312C40.0182 38.0752 40.0962 38.2672 40.0962 38.5072C40.0962 38.7232 40.0182 38.9032 39.8622 39.0472C39.7062 39.1912 39.5022 39.2632 39.2502 39.2632H37.7202V43.7092C37.7202 44.1892 37.8522 44.5912 38.1162 44.9152C38.3802 45.2392 38.7042 45.4012 39.0882 45.4012H39.7002C39.9162 45.4012 40.0962 45.4852 40.2402 45.6532C40.3962 45.8212 40.4742 46.0372 40.4742 46.3012C40.4742 46.5652 40.3722 46.7812 40.1682 46.9492C39.9762 47.1172 39.7242 47.2012 39.4122 47.2012H39.0882ZM47.1948 47.2732C46.2228 47.2732 45.3648 47.0632 44.6208 46.6432C43.8768 46.2112 43.2888 45.6232 42.8568 44.8792C42.4368 44.1232 42.2268 43.2592 42.2268 42.2872C42.2268 41.3032 42.4368 40.4392 42.8568 39.6952C43.2888 38.9392 43.8768 38.3512 44.6208 37.9312C45.3648 37.4992 46.2228 37.2832 47.1948 37.2832C48.1548 37.2832 49.0068 37.4992 49.7508 37.9312C50.4948 38.3512 51.0768 38.9392 51.4968 39.6952C51.9288 40.4392 52.1448 41.3032 52.1448 42.2872C52.1448 43.2592 51.9348 44.1232 51.5148 44.8792C51.0948 45.6232 50.5128 46.2112 49.7688 46.6432C49.0248 47.0632 48.1668 47.2732 47.1948 47.2732ZM47.1948 45.6532C47.8188 45.6532 48.3708 45.5092 48.8508 45.2212C49.3308 44.9332 49.7028 44.5372 49.9668 44.0332C50.2428 43.5292 50.3808 42.9472 50.3808 42.2872C50.3808 41.6272 50.2428 41.0452 49.9668 40.5412C49.7028 40.0252 49.3308 39.6232 48.8508 39.3352C48.3708 39.0472 47.8188 38.9032 47.1948 38.9032C46.5708 38.9032 46.0188 39.0472 45.5388 39.3352C45.0588 39.6232 44.6808 40.0252 44.4048 40.5412C44.1288 41.0452 43.9908 41.6272 43.9908 42.2872C43.9908 42.9472 44.1288 43.5292 44.4048 44.0332C44.6808 44.5372 45.0588 44.9332 45.5388 45.2212C46.0188 45.5092 46.5708 45.6532 47.1948 45.6532ZM55.3993 47.4892C55.0633 47.4892 54.7693 47.3692 54.5173 47.1292C54.2773 46.8772 54.1573 46.5832 54.1573 46.2472C54.1573 45.8992 54.2773 45.6052 54.5173 45.3652C54.7693 45.1132 55.0633 44.9872 55.3993 44.9872C55.7473 44.9872 56.0413 45.1132 56.2813 45.3652C56.5213 45.6052 56.6413 45.8992 56.6413 46.2472C56.6413 46.5832 56.5213 46.8772 56.2813 47.1292C56.0413 47.3692 55.7473 47.4892 55.3993 47.4892ZM60.0844 47.2192C59.8204 47.2192 59.5984 47.1352 59.4184 46.9672C59.2504 46.7872 59.1664 46.5652 59.1664 46.3012V38.2912C59.1664 38.0152 59.2504 37.7932 59.4184 37.6252C59.5984 37.4572 59.8204 37.3732 60.0844 37.3732C60.3604 37.3732 60.5824 37.4572 60.7504 37.6252C60.9184 37.7932 61.0024 38.0032 61.0024 38.2552C61.3144 37.9432 61.6864 37.7032 62.1184 37.5352C62.5504 37.3552 63.0184 37.2652 63.5224 37.2652C64.7824 37.2652 65.7304 37.7392 66.3664 38.6872C66.7144 38.2432 67.1584 37.8952 67.6984 37.6432C68.2384 37.3912 68.8444 37.2652 69.5164 37.2652C70.5484 37.2652 71.3884 37.6012 72.0364 38.2732C72.6844 38.9452 73.0084 39.9052 73.0084 41.1532V46.3012C73.0084 46.5652 72.9244 46.7872 72.7564 46.9672C72.5884 47.1352 72.3664 47.2192 72.0904 47.2192C71.8264 47.2192 71.6044 47.1352 71.4244 46.9672C71.2564 46.7872 71.1724 46.5652 71.1724 46.3012V41.1532C71.1724 40.3972 70.9864 39.8392 70.6144 39.4792C70.2424 39.1072 69.7564 38.9212 69.1564 38.9212C68.5324 38.9212 68.0164 39.1372 67.6084 39.5692C67.2124 40.0012 67.0144 40.5532 67.0144 41.2252V46.3012C67.0144 46.5652 66.9304 46.7872 66.7624 46.9672C66.5944 47.1352 66.3724 47.2192 66.0964 47.2192C65.8324 47.2192 65.6104 47.1352 65.4304 46.9672C65.2624 46.7872 65.1784 46.5652 65.1784 46.3012V41.1532C65.1784 40.3972 64.9924 39.8392 64.6204 39.4792C64.2484 39.1072 63.7624 38.9212 63.1624 38.9212C62.5384 38.9212 62.0224 39.1372 61.6144 39.5692C61.2064 40.0012 61.0024 40.5532 61.0024 41.2252V46.3012C61.0024 46.5652 60.9184 46.7872 60.7504 46.9672C60.5824 47.1352 60.3604 47.2192 60.0844 47.2192ZM80.685 47.2732C79.689 47.2732 78.801 47.0632 78.021 46.6432C77.253 46.2112 76.647 45.6232 76.203 44.8792C75.771 44.1232 75.555 43.2592 75.555 42.2872C75.555 41.3032 75.759 40.4392 76.167 39.6952C76.587 38.9392 77.163 38.3512 77.895 37.9312C78.627 37.4992 79.467 37.2832 80.415 37.2832C81.351 37.2832 82.155 37.4932 82.827 37.9132C83.499 38.3212 84.009 38.8912 84.357 39.6232C84.717 40.3432 84.897 41.1772 84.897 42.1252C84.897 42.3532 84.819 42.5452 84.663 42.7012C84.507 42.8452 84.309 42.9172 84.069 42.9172H77.229C77.361 43.7452 77.739 44.4232 78.363 44.9512C78.999 45.4672 79.773 45.7252 80.685 45.7252C81.057 45.7252 81.435 45.6592 81.819 45.5272C82.215 45.3832 82.533 45.2212 82.773 45.0412C82.953 44.9092 83.145 44.8432 83.349 44.8432C83.565 44.8312 83.751 44.8912 83.907 45.0232C84.111 45.2032 84.219 45.4012 84.231 45.6172C84.243 45.8332 84.147 46.0192 83.943 46.1752C83.535 46.4992 83.025 46.7632 82.413 46.9672C81.813 47.1712 81.237 47.2732 80.685 47.2732ZM80.415 38.8312C79.527 38.8312 78.813 39.0772 78.273 39.5692C77.733 40.0612 77.391 40.6972 77.247 41.4772H83.241C83.133 40.7092 82.839 40.0792 82.359 39.5872C81.879 39.0832 81.231 38.8312 80.415 38.8312Z" fill="black"/>
<path d="M7.4095 56.7459C6.9831 56.7459 6.60044 56.6475 6.2615 56.4507C5.92257 56.2485 5.6547 55.9751 5.4579 55.6307C5.2611 55.2863 5.15997 54.8982 5.1545 54.4663V50.7271C5.1545 50.6014 5.19277 50.5003 5.2693 50.4237C5.3513 50.3472 5.45244 50.3089 5.5727 50.3089C5.69844 50.3089 5.79957 50.3472 5.8761 50.4237C5.95264 50.5003 5.9909 50.6014 5.9909 50.7271V52.9411C6.18224 52.7115 6.41184 52.5311 6.6797 52.3999C6.95304 52.2633 7.25097 52.1949 7.5735 52.1949C7.97257 52.1949 8.33064 52.2961 8.6477 52.4983C8.96477 52.6951 9.2135 52.9657 9.3939 53.3101C9.57977 53.6491 9.6727 54.0345 9.6727 54.4663C9.6727 54.8982 9.57157 55.2863 9.3693 55.6307C9.1725 55.9751 8.90464 56.2485 8.5657 56.4507C8.22677 56.6475 7.84137 56.7459 7.4095 56.7459ZM7.4095 56.0079C7.6883 56.0079 7.93704 55.9423 8.1557 55.8111C8.37437 55.6745 8.54657 55.4886 8.6723 55.2535C8.8035 55.0185 8.8691 54.7561 8.8691 54.4663C8.8691 54.1711 8.8035 53.9087 8.6723 53.6791C8.54657 53.4495 8.37437 53.2691 8.1557 53.1379C7.93704 53.0013 7.6883 52.9329 7.4095 52.9329C7.13617 52.9329 6.88744 53.0013 6.6633 53.1379C6.44464 53.2691 6.27244 53.4495 6.1467 53.6791C6.02097 53.9087 5.9581 54.1711 5.9581 54.4663C5.9581 54.7561 6.02097 55.0185 6.1467 55.2535C6.27244 55.4886 6.44464 55.6745 6.6633 55.8111C6.88744 55.9423 7.13617 56.0079 7.4095 56.0079ZM11.3301 56.7131C11.0568 56.7131 10.9201 56.5765 10.9201 56.3031V52.6377C10.9201 52.3644 11.0568 52.2277 11.3301 52.2277C11.6035 52.2277 11.7401 52.3644 11.7401 52.6377V52.7935C11.9041 52.6022 12.1037 52.4519 12.3387 52.3425C12.5793 52.2332 12.8389 52.1785 13.1177 52.1785C13.4457 52.1785 13.689 52.2332 13.8475 52.3425C14.0115 52.4464 14.0744 52.5721 14.0361 52.7197C14.0088 52.8345 13.9541 52.9111 13.8721 52.9493C13.7901 52.9821 13.6945 52.9876 13.5851 52.9657C13.2353 52.8947 12.9209 52.8892 12.6421 52.9493C12.3633 53.0095 12.1419 53.1215 11.9779 53.2855C11.8194 53.4495 11.7401 53.6573 11.7401 53.9087V56.3031C11.7401 56.5765 11.6035 56.7131 11.3301 56.7131ZM15.4082 56.7131C15.288 56.7131 15.1868 56.6749 15.1048 56.5983C15.0283 56.5163 14.99 56.4152 14.99 56.2949V52.6459C14.99 52.5202 15.0283 52.4191 15.1048 52.3425C15.1868 52.266 15.288 52.2277 15.4082 52.2277C15.534 52.2277 15.6351 52.266 15.7116 52.3425C15.7882 52.4191 15.8264 52.5202 15.8264 52.6459V56.2949C15.8264 56.4152 15.7882 56.5163 15.7116 56.5983C15.6351 56.6749 15.534 56.7131 15.4082 56.7131ZM15.4082 51.4979C15.2606 51.4979 15.1322 51.446 15.0228 51.3421C14.919 51.2328 14.867 51.1043 14.867 50.9567C14.867 50.8091 14.919 50.6834 15.0228 50.5795C15.1322 50.4702 15.2606 50.4155 15.4082 50.4155C15.5558 50.4155 15.6816 50.4702 15.7854 50.5795C15.8948 50.6834 15.9494 50.8091 15.9494 50.9567C15.9494 51.1043 15.8948 51.2328 15.7854 51.3421C15.6816 51.446 15.5558 51.4979 15.4082 51.4979ZM17.8006 56.7213C17.6804 56.7213 17.5792 56.6831 17.4972 56.6065C17.4207 56.5245 17.3824 56.4234 17.3824 56.3031V52.6459C17.3824 52.5202 17.4207 52.4191 17.4972 52.3425C17.5792 52.266 17.6804 52.2277 17.8006 52.2277C17.9264 52.2277 18.0275 52.266 18.104 52.3425C18.1806 52.4191 18.2188 52.5202 18.2188 52.6459V52.7361C18.3883 52.5667 18.5933 52.4327 18.8338 52.3343C19.0744 52.2359 19.334 52.1867 19.6128 52.1867C19.99 52.1867 20.3262 52.2687 20.6214 52.4327C20.9221 52.5913 21.1572 52.8263 21.3266 53.1379C21.5016 53.4495 21.589 53.8322 21.589 54.2859V56.3031C21.589 56.4234 21.548 56.5245 21.466 56.6065C21.3895 56.6831 21.2911 56.7213 21.1708 56.7213C21.0506 56.7213 20.9494 56.6831 20.8674 56.6065C20.7909 56.5245 20.7526 56.4234 20.7526 56.3031V54.2859C20.7526 53.8213 20.6269 53.4823 20.3754 53.2691C20.1294 53.0505 19.8206 52.9411 19.4488 52.9411C19.2192 52.9411 19.0115 52.9876 18.8256 53.0805C18.6398 53.1735 18.4922 53.2992 18.3828 53.4577C18.2735 53.6108 18.2188 53.7885 18.2188 53.9907V56.3031C18.2188 56.4234 18.1806 56.5245 18.104 56.6065C18.0275 56.6831 17.9264 56.7213 17.8006 56.7213ZM24.8415 56.7459C24.4315 56.7459 24.068 56.6503 23.7509 56.4589C23.4393 56.2621 23.1933 55.9943 23.0129 55.6553C22.8325 55.3109 22.7423 54.9173 22.7423 54.4745C22.7423 54.0263 22.838 53.6327 23.0293 53.2937C23.2261 52.9493 23.494 52.6815 23.8329 52.4901C24.1718 52.2933 24.5627 52.1949 25.0055 52.1949C25.4428 52.1949 25.831 52.2933 26.1699 52.4901C26.5088 52.6815 26.774 52.9493 26.9653 53.2937C27.1621 53.6327 27.2605 54.0263 27.2605 54.4745V56.2457C27.2605 56.6776 27.1648 57.0685 26.9735 57.4183C26.7822 57.7737 26.5143 58.0552 26.1699 58.2629C25.831 58.4707 25.4374 58.5745 24.9891 58.5745C24.601 58.5745 24.2374 58.498 23.8985 58.3449C23.5596 58.1919 23.2726 57.9677 23.0375 57.6725C22.9664 57.5796 22.9391 57.4839 22.9555 57.3855C22.9774 57.2871 23.032 57.2079 23.1195 57.1477C23.2179 57.0821 23.319 57.0603 23.4229 57.0821C23.5322 57.104 23.6197 57.1587 23.6853 57.2461C23.8329 57.432 24.0188 57.5769 24.2429 57.6807C24.467 57.7846 24.7212 57.8365 25.0055 57.8365C25.2679 57.8365 25.5084 57.7737 25.7271 57.6479C25.9512 57.5222 26.1289 57.3363 26.2601 57.0903C26.3913 56.8443 26.4569 56.5437 26.4569 56.1883V55.7865C26.2874 56.0817 26.0633 56.3168 25.7845 56.4917C25.5057 56.6612 25.1914 56.7459 24.8415 56.7459ZM25.0055 56.0079C25.2898 56.0079 25.5412 55.9423 25.7599 55.8111C25.9786 55.6799 26.148 55.4995 26.2683 55.2699C26.394 55.0403 26.4569 54.7752 26.4569 54.4745C26.4569 54.1739 26.394 53.9087 26.2683 53.6791C26.148 53.4441 25.9786 53.2609 25.7599 53.1297C25.5412 52.9985 25.2898 52.9329 25.0055 52.9329C24.7212 52.9329 24.4698 52.9985 24.2511 53.1297C24.0324 53.2609 23.8602 53.4441 23.7345 53.6791C23.6088 53.9087 23.5459 54.1739 23.5459 54.4745C23.5459 54.7752 23.6088 55.0403 23.7345 55.2699C23.8602 55.4995 24.0324 55.6799 24.2511 55.8111C24.4698 55.9423 24.7212 56.0079 25.0055 56.0079ZM31.4078 56.7131C31.2876 56.7131 31.1864 56.6749 31.1044 56.5983C31.0279 56.5163 30.9896 56.4152 30.9896 56.2949V52.6459C30.9896 52.5202 31.0279 52.4191 31.1044 52.3425C31.1864 52.266 31.2876 52.2277 31.4078 52.2277C31.5336 52.2277 31.6347 52.266 31.7112 52.3425C31.7878 52.4191 31.826 52.5202 31.826 52.6459V56.2949C31.826 56.4152 31.7878 56.5163 31.7112 56.5983C31.6347 56.6749 31.5336 56.7131 31.4078 56.7131ZM31.4078 51.4979C31.2602 51.4979 31.1318 51.446 31.0224 51.3421C30.9186 51.2328 30.8666 51.1043 30.8666 50.9567C30.8666 50.8091 30.9186 50.6834 31.0224 50.5795C31.1318 50.4702 31.2602 50.4155 31.4078 50.4155C31.5554 50.4155 31.6812 50.4702 31.785 50.5795C31.8944 50.6834 31.949 50.8091 31.949 50.9567C31.949 51.1043 31.8944 51.2328 31.785 51.3421C31.6812 51.446 31.5554 51.4979 31.4078 51.4979ZM35.0138 56.7131C34.7405 56.7131 34.4945 56.6448 34.2758 56.5081C34.0572 56.366 33.885 56.1747 33.7592 55.9341C33.6335 55.6936 33.5706 55.423 33.5706 55.1223V53.0969H33.1934C33.0786 53.0969 32.9857 53.0641 32.9146 52.9985C32.8436 52.9329 32.808 52.8509 32.808 52.7525C32.808 52.6432 32.8436 52.5557 32.9146 52.4901C32.9857 52.4245 33.0786 52.3917 33.1934 52.3917H33.5706V51.2109C33.5706 51.0907 33.6089 50.9923 33.6854 50.9157C33.762 50.8392 33.8604 50.8009 33.9806 50.8009C34.1009 50.8009 34.1993 50.8392 34.2758 50.9157C34.3524 50.9923 34.3906 51.0907 34.3906 51.2109V52.3917H35.0876C35.2024 52.3917 35.2954 52.4245 35.3664 52.4901C35.4375 52.5557 35.473 52.6432 35.473 52.7525C35.473 52.8509 35.4375 52.9329 35.3664 52.9985C35.2954 53.0641 35.2024 53.0969 35.0876 53.0969H34.3906V55.1223C34.3906 55.341 34.4508 55.5241 34.571 55.6717C34.6913 55.8193 34.8389 55.8931 35.0138 55.8931H35.2926C35.391 55.8931 35.473 55.9314 35.5386 56.0079C35.6097 56.0845 35.6452 56.1829 35.6452 56.3031C35.6452 56.4234 35.5988 56.5218 35.5058 56.5983C35.4184 56.6749 35.3036 56.7131 35.1614 56.7131H35.0138ZM41.3306 56.7459C40.9042 56.7459 40.5215 56.6475 40.1826 56.4507C39.8437 56.2485 39.5758 55.9751 39.379 55.6307C39.1822 55.2863 39.0811 54.8982 39.0756 54.4663V50.7271C39.0756 50.6014 39.1139 50.5003 39.1904 50.4237C39.2724 50.3472 39.3735 50.3089 39.4938 50.3089C39.6195 50.3089 39.7207 50.3472 39.7972 50.4237C39.8737 50.5003 39.912 50.6014 39.912 50.7271V52.9411C40.1033 52.7115 40.3329 52.5311 40.6008 52.3999C40.8741 52.2633 41.1721 52.1949 41.4946 52.1949C41.8937 52.1949 42.2517 52.2961 42.5688 52.4983C42.8859 52.6951 43.1346 52.9657 43.315 53.3101C43.5009 53.6491 43.5938 54.0345 43.5938 54.4663C43.5938 54.8982 43.4927 55.2863 43.2904 55.6307C43.0936 55.9751 42.8257 56.2485 42.4868 56.4507C42.1479 56.6475 41.7625 56.7459 41.3306 56.7459ZM41.3306 56.0079C41.6094 56.0079 41.8581 55.9423 42.0768 55.8111C42.2955 55.6745 42.4677 55.4886 42.5934 55.2535C42.7246 55.0185 42.7902 54.7561 42.7902 54.4663C42.7902 54.1711 42.7246 53.9087 42.5934 53.6791C42.4677 53.4495 42.2955 53.2691 42.0768 53.1379C41.8581 53.0013 41.6094 52.9329 41.3306 52.9329C41.0573 52.9329 40.8085 53.0013 40.5844 53.1379C40.3657 53.2691 40.1935 53.4495 40.0678 53.6791C39.9421 53.9087 39.8792 54.1711 39.8792 54.4663C39.8792 54.7561 39.9421 55.0185 40.0678 55.2535C40.1935 55.4886 40.3657 55.6745 40.5844 55.8111C40.8085 55.9423 41.0573 56.0079 41.3306 56.0079ZM46.7108 56.7459C46.3118 56.7459 45.9537 56.6475 45.6366 56.4507C45.3196 56.2485 45.0681 55.9779 44.8822 55.6389C44.7018 55.2945 44.6116 54.9064 44.6116 54.4745C44.6116 54.0427 44.71 53.6545 44.9068 53.3101C45.1091 52.9657 45.3797 52.6951 45.7186 52.4983C46.063 52.2961 46.4484 52.1949 46.8748 52.1949C47.3012 52.1949 47.6839 52.2961 48.0228 52.4983C48.3618 52.6951 48.6296 52.9657 48.8264 53.3101C49.0287 53.6545 49.1298 54.0427 49.1298 54.4745V56.3031C49.1298 56.4234 49.0888 56.5245 49.0068 56.6065C48.9303 56.6831 48.8319 56.7213 48.7116 56.7213C48.5914 56.7213 48.4902 56.6831 48.4082 56.6065C48.3317 56.5245 48.2934 56.4234 48.2934 56.3031V55.9997C48.1021 56.2293 47.8698 56.4125 47.5964 56.5491C47.3286 56.6803 47.0334 56.7459 46.7108 56.7459ZM46.8748 56.0079C47.1536 56.0079 47.4024 55.9423 47.621 55.8111C47.8397 55.6745 48.0119 55.4913 48.1376 55.2617C48.2634 55.0267 48.3262 54.7643 48.3262 54.4745C48.3262 54.1793 48.2634 53.9169 48.1376 53.6873C48.0119 53.4523 47.8397 53.2691 47.621 53.1379C47.4024 53.0013 47.1536 52.9329 46.8748 52.9329C46.6015 52.9329 46.3528 53.0013 46.1286 53.1379C45.91 53.2691 45.735 53.4523 45.6038 53.6873C45.4781 53.9169 45.4152 54.1793 45.4152 54.4745C45.4152 54.7643 45.4781 55.0267 45.6038 55.2617C45.735 55.4913 45.91 55.6745 46.1286 55.8111C46.3528 55.9423 46.6015 56.0079 46.8748 56.0079ZM52.4082 56.7459C51.9709 56.7459 51.58 56.6475 51.2356 56.4507C50.8967 56.2485 50.6288 55.9779 50.432 55.6389C50.2407 55.2945 50.145 54.9064 50.145 54.4745C50.145 54.0317 50.2407 53.6381 50.432 53.2937C50.6234 52.9493 50.8858 52.6815 51.2192 52.4901C51.5527 52.2933 51.9354 52.1949 52.3672 52.1949C53.0123 52.1949 53.548 52.4409 53.9744 52.9329C54.051 53.0204 54.0783 53.1106 54.0564 53.2035C54.0346 53.2965 53.9744 53.3785 53.876 53.4495C53.7995 53.5042 53.7148 53.5233 53.6218 53.5069C53.5289 53.4851 53.4442 53.4359 53.3676 53.3593C53.0998 53.0751 52.7663 52.9329 52.3672 52.9329C51.9463 52.9329 51.6046 53.0751 51.3422 53.3593C51.0798 53.6381 50.9486 54.0099 50.9486 54.4745C50.9486 54.7697 51.0088 55.0321 51.129 55.2617C51.2548 55.4913 51.427 55.6745 51.6456 55.8111C51.8643 55.9423 52.1185 56.0079 52.4082 56.0079C52.78 56.0079 53.0806 55.9123 53.3102 55.7209C53.3977 55.6499 53.4879 55.6116 53.5808 55.6061C53.6738 55.5952 53.7558 55.6198 53.8268 55.6799C53.9198 55.7565 53.9717 55.8439 53.9826 55.9423C53.9936 56.0353 53.9608 56.12 53.8842 56.1965C53.4906 56.5628 52.9986 56.7459 52.4082 56.7459ZM55.7012 56.7131C55.581 56.7131 55.4826 56.6776 55.406 56.6065C55.335 56.53 55.2994 56.4316 55.2994 56.3113V50.7107C55.2994 50.5905 55.335 50.4948 55.406 50.4237C55.4826 50.3472 55.581 50.3089 55.7012 50.3089C55.8215 50.3089 55.9172 50.3472 55.9882 50.4237C56.0648 50.4948 56.103 50.5905 56.103 50.7107V54.0481L58.0956 52.2687C58.1776 52.1922 58.2678 52.1567 58.3662 52.1621C58.4701 52.1676 58.5576 52.2113 58.6286 52.2933C58.7052 52.3753 58.7407 52.4655 58.7352 52.5639C58.7298 52.6623 58.686 52.7498 58.604 52.8263L57.0952 54.1711L58.686 56.1227C58.7571 56.2102 58.7872 56.3059 58.7762 56.4097C58.7708 56.5081 58.7216 56.5956 58.6286 56.6721C58.5412 56.7432 58.4428 56.7733 58.3334 56.7623C58.2296 56.7569 58.1421 56.7104 58.071 56.6229L56.513 54.6959L56.103 55.0567V56.3113C56.103 56.4316 56.0648 56.53 55.9882 56.6065C55.9172 56.6776 55.8215 56.7131 55.7012 56.7131ZM64.0021 56.7131C63.7288 56.7131 63.4828 56.6448 63.2641 56.5081C63.0455 56.366 62.8733 56.1747 62.7475 55.9341C62.6218 55.6936 62.5589 55.423 62.5589 55.1223V53.0969H62.1817C62.0669 53.0969 61.974 53.0641 61.9029 52.9985C61.8319 52.9329 61.7963 52.8509 61.7963 52.7525C61.7963 52.6432 61.8319 52.5557 61.9029 52.4901C61.974 52.4245 62.0669 52.3917 62.1817 52.3917H62.5589V51.2109C62.5589 51.0907 62.5972 50.9923 62.6737 50.9157C62.7503 50.8392 62.8487 50.8009 62.9689 50.8009C63.0892 50.8009 63.1876 50.8392 63.2641 50.9157C63.3407 50.9923 63.3789 51.0907 63.3789 51.2109V52.3917H64.0759C64.1907 52.3917 64.2837 52.4245 64.3547 52.4901C64.4258 52.5557 64.4613 52.6432 64.4613 52.7525C64.4613 52.8509 64.4258 52.9329 64.3547 52.9985C64.2837 53.0641 64.1907 53.0969 64.0759 53.0969H63.3789V55.1223C63.3789 55.341 63.4391 55.5241 63.5593 55.6717C63.6796 55.8193 63.8272 55.8931 64.0021 55.8931H64.2809C64.3793 55.8931 64.4613 55.9314 64.5269 56.0079C64.598 56.0845 64.6335 56.1829 64.6335 56.3031C64.6335 56.4234 64.5871 56.5218 64.4941 56.5983C64.4067 56.6749 64.2919 56.7131 64.1497 56.7131H64.0021ZM67.6951 56.7459C67.2523 56.7459 66.8615 56.6503 66.5225 56.4589C66.1836 56.2621 65.9157 55.9943 65.7189 55.6553C65.5276 55.3109 65.4319 54.9173 65.4319 54.4745C65.4319 54.0263 65.5276 53.6327 65.7189 53.2937C65.9157 52.9493 66.1836 52.6815 66.5225 52.4901C66.8615 52.2933 67.2523 52.1949 67.6951 52.1949C68.1325 52.1949 68.5206 52.2933 68.8595 52.4901C69.1985 52.6815 69.4636 52.9493 69.6549 53.2937C69.8517 53.6327 69.9501 54.0263 69.9501 54.4745C69.9501 54.9173 69.8545 55.3109 69.6631 55.6553C69.4718 55.9943 69.2067 56.2621 68.8677 56.4589C68.5288 56.6503 68.1379 56.7459 67.6951 56.7459ZM67.6951 56.0079C67.9794 56.0079 68.2309 55.9423 68.4495 55.8111C68.6682 55.6799 68.8377 55.4995 68.9579 55.2699C69.0837 55.0403 69.1465 54.7752 69.1465 54.4745C69.1465 54.1739 69.0837 53.9087 68.9579 53.6791C68.8377 53.4441 68.6682 53.2609 68.4495 53.1297C68.2309 52.9985 67.9794 52.9329 67.6951 52.9329C67.4109 52.9329 67.1594 52.9985 66.9407 53.1297C66.7221 53.2609 66.5499 53.4441 66.4241 53.6791C66.2984 53.9087 66.2355 54.1739 66.2355 54.4745C66.2355 54.7752 66.2984 55.0403 66.4241 55.2699C66.5499 55.4995 66.7221 55.6799 66.9407 55.8111C67.1594 55.9423 67.4109 56.0079 67.6951 56.0079ZM74.0155 56.7213C73.8952 56.7213 73.7941 56.6831 73.7121 56.6065C73.6355 56.5245 73.5973 56.4234 73.5973 56.3031V52.6541C73.5973 52.5284 73.6355 52.4273 73.7121 52.3507C73.7941 52.2742 73.8952 52.2359 74.0155 52.2359C74.1412 52.2359 74.2423 52.2742 74.3189 52.3507C74.3954 52.4273 74.4337 52.5229 74.4337 52.6377C74.5758 52.4956 74.7453 52.3863 74.9421 52.3097C75.1389 52.2277 75.3521 52.1867 75.5817 52.1867C76.1557 52.1867 76.5875 52.4027 76.8773 52.8345C77.0358 52.6323 77.2381 52.4737 77.4841 52.3589C77.7301 52.2441 78.0061 52.1867 78.3123 52.1867C78.7824 52.1867 79.1651 52.3398 79.4603 52.6459C79.7555 52.9521 79.9031 53.3894 79.9031 53.9579V56.3031C79.9031 56.4234 79.8648 56.5245 79.7883 56.6065C79.7117 56.6831 79.6106 56.7213 79.4849 56.7213C79.3646 56.7213 79.2635 56.6831 79.1815 56.6065C79.1049 56.5245 79.0667 56.4234 79.0667 56.3031V53.9579C79.0667 53.6135 78.9819 53.3593 78.8125 53.1953C78.643 53.0259 78.4216 52.9411 78.1483 52.9411C77.864 52.9411 77.6289 53.0395 77.4431 53.2363C77.2627 53.4331 77.1725 53.6846 77.1725 53.9907V56.3031C77.1725 56.4234 77.1342 56.5245 77.0577 56.6065C76.9811 56.6831 76.88 56.7213 76.7543 56.7213C76.634 56.7213 76.5329 56.6831 76.4509 56.6065C76.3743 56.5245 76.3361 56.4234 76.3361 56.3031V53.9579C76.3361 53.6135 76.2513 53.3593 76.0819 53.1953C75.9124 53.0259 75.691 52.9411 75.4177 52.9411C75.1334 52.9411 74.8983 53.0395 74.7125 53.2363C74.5266 53.4331 74.4337 53.6846 74.4337 53.9907V56.3031C74.4337 56.4234 74.3954 56.5245 74.3189 56.6065C74.2423 56.6831 74.1412 56.7213 74.0155 56.7213ZM83.4002 56.7459C82.9465 56.7459 82.5419 56.6503 82.1866 56.4589C81.8367 56.2621 81.5607 55.9943 81.3584 55.6553C81.1616 55.3109 81.0632 54.9173 81.0632 54.4745C81.0632 54.0263 81.1561 53.6327 81.342 53.2937C81.5333 52.9493 81.7957 52.6815 82.1292 52.4901C82.4627 52.2933 82.8453 52.1949 83.2772 52.1949C83.7036 52.1949 84.0699 52.2906 84.376 52.4819C84.6821 52.6678 84.9145 52.9275 85.073 53.2609C85.237 53.5889 85.319 53.9689 85.319 54.4007C85.319 54.5046 85.2835 54.5921 85.2124 54.6631C85.1413 54.7287 85.0511 54.7615 84.9418 54.7615H81.8258C81.8859 55.1387 82.0581 55.4476 82.3424 55.6881C82.6321 55.9232 82.9847 56.0407 83.4002 56.0407C83.5697 56.0407 83.7419 56.0107 83.9168 55.9505C84.0972 55.8849 84.2421 55.8111 84.3514 55.7291C84.4334 55.669 84.5209 55.6389 84.6138 55.6389C84.7122 55.6335 84.7969 55.6608 84.868 55.7209C84.9609 55.8029 85.0101 55.8931 85.0156 55.9915C85.0211 56.0899 84.9773 56.1747 84.8844 56.2457C84.6985 56.3933 84.4662 56.5136 84.1874 56.6065C83.9141 56.6995 83.6517 56.7459 83.4002 56.7459ZM83.2772 52.9001C82.8727 52.9001 82.5474 53.0122 82.3014 53.2363C82.0554 53.4605 81.8996 53.7502 81.834 54.1055H84.5646C84.5154 53.7557 84.3815 53.4687 84.1628 53.2445C83.9441 53.0149 83.6489 52.9001 83.2772 52.9001Z" fill="black"/>
</g>
<defs>
<clipPath id="clip0">
<rect width="90" height="90" fill="white"/>
</clipPath>
</defs>
</svg>
