<svg width="94" height="94" opacity="0.8" viewBox="0 0 94 94" fill="none" xmlns="http://www.w3.org/2000/svg">
<g clip-path="url(#clip0)">
<path d="M93.9272 46.9456C93.923 44.9314 93.8755 43.4509 93.2645 41.5146C92.0452 35.9361 89.2069 30.6987 85.0318 26.5218L67.5009 8.91199C63.3042 4.71522 58.0442 1.86566 52.4562 0.657249C50.5954 0.0807645 49.1484 0.0251357 47.1907 0.0161396C23.9376 -0.64131 -0.560018 18.8446 0.070259 47.9728C0.295896 58.4046 3.88552 68.4759 10.178 76.3306C18.6757 86.9386 31.0168 93.1898 44.3834 93.9258C72.7121 95.4849 94.6023 72.2342 93.9272 46.9456ZM63.6051 12.799L81.1313 30.4044C81.1328 30.4059 81.1344 30.4073 81.1357 30.4088C81.6799 30.953 82.1947 31.5199 82.6827 32.1052C77.5015 31.1601 72.2076 29.4473 68.3927 25.6321C64.6 21.8392 62.8812 16.5157 61.919 11.2594C62.5006 11.7454 63.0639 12.258 63.6051 12.799ZM64.5012 29.5237C67.6638 32.6863 71.601 34.6816 75.3327 35.9399C79.6477 46.982 76.9344 59.8969 68.3925 68.4386C56.3906 80.4405 37.5876 80.4405 25.5859 68.4386C19.7601 62.6128 16.5518 55.0118 16.5518 47.0352C16.5518 39.0588 19.7601 31.4577 25.5859 25.6321C34.1563 17.0617 47.0653 14.3163 58.0747 18.609C59.3345 22.3801 61.3324 26.355 64.5012 29.5237ZM44.6555 88.4083C32.8327 87.7508 21.828 82.0892 14.4635 72.8748C8.74084 65.715 5.75451 56.8621 5.5419 47.9525C4.96946 23.9516 24.1807 5.51753 46.9715 5.51753C47.0194 5.51753 47.0673 5.51881 47.1151 5.519C48.4309 5.56067 49.7412 5.71526 51.0319 5.9789C53.8311 6.92073 55.9964 9.32361 56.5173 12.3061C44.7338 9.10421 31.2579 12.1772 21.6945 21.7408C14.8292 28.6059 11.0484 37.5891 11.0484 47.0356C11.0484 56.482 14.829 65.4653 21.6945 72.3304C28.7863 79.4223 37.8876 82.9684 46.9893 82.9684C56.0908 82.9684 65.1923 79.4223 72.2841 72.3304C81.7328 62.8819 84.9018 49.448 81.6428 37.5084C84.6044 38.0272 86.9936 40.1749 87.9485 42.9596C88.225 44.2995 88.3842 45.6618 88.4242 47.0312C88.4323 71.1918 68.4211 89.7294 44.6555 88.4083Z" fill="white"/>
<g clip-path="url(#clip1)">
<path d="M42.3267 43.0312H29.0718V30.0312H42.3267V43.0312Z" stroke="white" stroke-width="1.8799" stroke-miterlimit="10" stroke-linecap="square"/>
<path d="M65.5224 59.2813V52.7813H57.238V50.3438" stroke="white" stroke-width="1.8799" stroke-miterlimit="10" stroke-linecap="square"/>
<path d="M65.522 65.7812H52.2671" stroke="white" stroke-width="1.8799" stroke-miterlimit="10" stroke-linecap="square"/>
<path d="M37.3557 38.1562H34.042V34.9062H37.3557V38.1562Z" stroke="white" stroke-width="1.8799" stroke-miterlimit="10" stroke-linecap="square"/>
<path d="M65.522 43.0312H52.2671V30.0312H65.522V43.0312Z" stroke="white" stroke-width="1.8799" stroke-miterlimit="10" stroke-linecap="square"/>
<path d="M60.5518 38.1562H57.238V34.9062H60.5518V38.1562Z" stroke="white" stroke-width="1.8799" stroke-miterlimit="10" stroke-linecap="square"/>
<path d="M42.3264 65.7813H29.0715V52.7813H42.3264V65.7813Z" stroke="white" stroke-width="1.8799" stroke-miterlimit="10" stroke-linecap="square"/>
<path d="M37.3557 60.9062H34.042V57.6562H37.3557V60.9062Z" stroke="white" stroke-width="1.8799" stroke-miterlimit="10" stroke-linecap="square"/>
<path d="M60.5518 60.9062H57.238V57.6562H60.5518V60.9062Z" stroke="white" stroke-width="1.8799" stroke-miterlimit="10" stroke-linecap="square"/>
<path d="M48.1252 61.7188V58.4688H51.439V50.3438" stroke="white" stroke-width="1.8799" stroke-miterlimit="10" stroke-linecap="square"/>
<path d="M41.4978 48.7187V47.0937H47.2968V50.3437" stroke="white" stroke-width="1.8799" stroke-miterlimit="10" stroke-linecap="square"/>
<path d="M45.6399 37.3438H48.1252V33.2813" stroke="white" stroke-width="1.8799" stroke-miterlimit="10" stroke-linecap="square"/>
<path d="M63.0374 47.9063V52.7813" stroke="white" stroke-width="1.8799" stroke-miterlimit="10" stroke-linecap="square"/>
<path d="M29.0715 46.2812V47.9062H34.0421" stroke="white" stroke-width="1.8799" stroke-miterlimit="10" stroke-linecap="square"/>
</g>
</g>
<defs>
<clipPath id="clip0">
<rect width="94" height="94" fill="white"/>
</clipPath>
<clipPath id="clip1">
<rect x="27" y="28" width="39.7647" height="39" fill="white"/>
</clipPath>
</defs>
</svg>

