<svg width="344" height="95" viewBox="0 0 344 95" fill="none" xmlns="http://www.w3.org/2000/svg">
<path d="M61.771 54.065C61.095 54.065 60.484 53.909 59.938 53.597C59.4007 53.285 58.9717 52.8603 58.651 52.323C58.339 51.777 58.1787 51.166 58.17 50.49V44.354C58.17 44.198 58.2133 44.0767 58.3 43.99C58.3953 43.8947 58.521 43.847 58.677 43.847C58.8243 43.847 58.9413 43.8947 59.028 43.99C59.1233 44.0767 59.171 44.198 59.171 44.354V48.176C59.457 47.7687 59.834 47.4437 60.302 47.201C60.7787 46.9497 61.3073 46.824 61.888 46.824C62.5553 46.824 63.1533 46.9843 63.682 47.305C64.2107 47.617 64.6267 48.046 64.93 48.592C65.242 49.138 65.398 49.7533 65.398 50.438C65.398 51.1313 65.2377 51.751 64.917 52.297C64.605 52.843 64.176 53.2763 63.63 53.597C63.084 53.909 62.4643 54.065 61.771 54.065ZM61.771 53.155C62.2737 53.155 62.7243 53.038 63.123 52.804C63.5217 52.5613 63.8337 52.2363 64.059 51.829C64.293 51.4217 64.41 50.958 64.41 50.438C64.41 49.9267 64.293 49.4673 64.059 49.06C63.8337 48.644 63.5217 48.319 63.123 48.085C62.7243 47.851 62.2737 47.734 61.771 47.734C61.277 47.734 60.8307 47.851 60.432 48.085C60.0333 48.319 59.7213 48.644 59.496 49.06C59.2707 49.4673 59.158 49.9267 59.158 50.438C59.158 50.958 59.2707 51.4217 59.496 51.829C59.7213 52.2363 60.0333 52.5613 60.432 52.804C60.8307 53.038 61.277 53.155 61.771 53.155ZM67.7774 49.619C67.8034 49.0817 67.9421 48.6007 68.1934 48.176C68.4534 47.7513 68.7871 47.4177 69.1944 47.175C69.6104 46.9323 70.0697 46.811 70.5724 46.811C70.9711 46.811 71.2787 46.8673 71.4954 46.98C71.7121 47.0927 71.7944 47.2573 71.7424 47.474C71.7077 47.604 71.6471 47.6907 71.5604 47.734C71.4824 47.7773 71.3827 47.7947 71.2614 47.786C71.1487 47.7773 71.0187 47.7687 70.8714 47.76C70.3861 47.7167 69.9527 47.7687 69.5714 47.916C69.1987 48.0547 68.8997 48.2713 68.6744 48.566C68.4577 48.8607 68.3494 49.2117 68.3494 49.619H67.7774ZM67.8554 54C67.6994 54 67.5781 53.9567 67.4914 53.87C67.4047 53.7833 67.3614 53.662 67.3614 53.506V47.383C67.3614 47.227 67.4047 47.1057 67.4914 47.019C67.5781 46.9323 67.6994 46.889 67.8554 46.889C68.0114 46.889 68.1327 46.9323 68.2194 47.019C68.3061 47.1057 68.3494 47.227 68.3494 47.383V53.506C68.3494 53.662 68.3061 53.7833 68.2194 53.87C68.1327 53.9567 68.0114 54 67.8554 54ZM74.0305 54C73.8745 54 73.7488 53.9567 73.6535 53.87C73.5668 53.7747 73.5235 53.649 73.5235 53.493V47.396C73.5235 47.24 73.5668 47.1187 73.6535 47.032C73.7488 46.9367 73.8745 46.889 74.0305 46.889C74.1778 46.889 74.2948 46.9367 74.3815 47.032C74.4768 47.1187 74.5245 47.24 74.5245 47.396V53.493C74.5245 53.649 74.4768 53.7747 74.3815 53.87C74.2948 53.9567 74.1778 54 74.0305 54ZM74.0175 45.537C73.8268 45.537 73.6622 45.4677 73.5235 45.329C73.3848 45.1903 73.3155 45.0213 73.3155 44.822C73.3155 44.6053 73.3848 44.4363 73.5235 44.315C73.6708 44.185 73.8398 44.12 74.0305 44.12C74.2125 44.12 74.3728 44.185 74.5115 44.315C74.6588 44.4363 74.7325 44.6053 74.7325 44.822C74.7325 45.0213 74.6632 45.1903 74.5245 45.329C74.3858 45.4677 74.2168 45.537 74.0175 45.537ZM83.1703 54C83.023 54 82.9017 53.9523 82.8063 53.857C82.711 53.7617 82.6633 53.6447 82.6633 53.506V50.126C82.6633 49.5887 82.5593 49.1467 82.3513 48.8C82.152 48.4533 81.8747 48.1933 81.5193 48.02C81.1727 47.8467 80.7783 47.76 80.3363 47.76C79.9117 47.76 79.526 47.8423 79.1793 48.007C78.8413 48.1717 78.5727 48.397 78.3733 48.683C78.174 48.969 78.0743 49.294 78.0743 49.658H77.3593C77.3767 49.112 77.524 48.6267 77.8013 48.202C78.0787 47.7687 78.447 47.4307 78.9063 47.188C79.3657 46.9367 79.877 46.811 80.4403 46.811C81.0557 46.811 81.606 46.941 82.0913 47.201C82.5767 47.4523 82.958 47.825 83.2353 48.319C83.5213 48.813 83.6643 49.4153 83.6643 50.126V53.506C83.6643 53.6447 83.6167 53.7617 83.5213 53.857C83.426 53.9523 83.309 54 83.1703 54ZM77.5803 54C77.4243 54 77.2987 53.9567 77.2033 53.87C77.1167 53.7747 77.0733 53.6533 77.0733 53.506V47.396C77.0733 47.24 77.1167 47.1187 77.2033 47.032C77.2987 46.9367 77.4243 46.889 77.5803 46.889C77.7277 46.889 77.8447 46.9367 77.9313 47.032C78.0267 47.1187 78.0743 47.24 78.0743 47.396V53.506C78.0743 53.6533 78.0267 53.7747 77.9313 53.87C77.8447 53.9567 77.7277 54 77.5803 54ZM89.0042 54.065C88.3195 54.065 87.7128 53.9133 87.1842 53.61C86.6555 53.298 86.2395 52.869 85.9362 52.323C85.6415 51.777 85.4942 51.153 85.4942 50.451C85.4942 49.7403 85.6502 49.112 85.9622 48.566C86.2742 48.02 86.7032 47.5953 87.2492 47.292C87.7952 46.98 88.4148 46.824 89.1082 46.824C89.8102 46.824 90.4298 46.98 90.9672 47.292C91.5132 47.5953 91.9378 48.02 92.2412 48.566C92.5532 49.112 92.7135 49.7403 92.7222 50.451L92.1372 50.763C92.1372 51.4043 92.0028 51.9763 91.7342 52.479C91.4655 52.973 91.0928 53.363 90.6162 53.649C90.1482 53.9263 89.6108 54.065 89.0042 54.065ZM89.1342 56.808C88.4495 56.808 87.8472 56.678 87.3272 56.418C86.8072 56.1667 86.3782 55.82 86.0402 55.378C85.9448 55.274 85.9015 55.1613 85.9102 55.04C85.9275 54.9187 85.9925 54.819 86.1052 54.741C86.2178 54.663 86.3435 54.637 86.4822 54.663C86.6208 54.689 86.7292 54.754 86.8072 54.858C87.0585 55.17 87.3792 55.4213 87.7692 55.612C88.1678 55.8027 88.6272 55.898 89.1472 55.898C89.6325 55.898 90.0702 55.781 90.4602 55.547C90.8502 55.313 91.1578 54.9837 91.3832 54.559C91.6172 54.1343 91.7342 53.636 91.7342 53.064V51.088L92.1112 50.334L92.7222 50.451V53.103C92.7222 53.805 92.5662 54.4333 92.2542 54.988C91.9422 55.5513 91.5175 55.9933 90.9802 56.314C90.4428 56.6433 89.8275 56.808 89.1342 56.808ZM89.1082 53.155C89.6195 53.155 90.0702 53.0423 90.4602 52.817C90.8588 52.583 91.1708 52.2623 91.3962 51.855C91.6215 51.4477 91.7342 50.9797 91.7342 50.451C91.7342 49.9223 91.6215 49.4543 91.3962 49.047C91.1708 48.631 90.8588 48.3103 90.4602 48.085C90.0702 47.851 89.6195 47.734 89.1082 47.734C88.5968 47.734 88.1418 47.851 87.7432 48.085C87.3445 48.3103 87.0325 48.631 86.8072 49.047C86.5818 49.4543 86.4692 49.9223 86.4692 50.451C86.4692 50.9797 86.5818 51.4477 86.8072 51.855C87.0325 52.2623 87.3445 52.583 87.7432 52.817C88.1418 53.0423 88.5968 53.155 89.1082 53.155ZM99.1926 54C99.0366 54 98.911 53.9567 98.8156 53.87C98.729 53.7747 98.6856 53.649 98.6856 53.493V47.396C98.6856 47.24 98.729 47.1187 98.8156 47.032C98.911 46.9367 99.0366 46.889 99.1926 46.889C99.34 46.889 99.457 46.9367 99.5436 47.032C99.639 47.1187 99.6866 47.24 99.6866 47.396V53.493C99.6866 53.649 99.639 53.7747 99.5436 53.87C99.457 53.9567 99.34 54 99.1926 54ZM99.1796 45.537C98.989 45.537 98.8243 45.4677 98.6856 45.329C98.547 45.1903 98.4776 45.0213 98.4776 44.822C98.4776 44.6053 98.547 44.4363 98.6856 44.315C98.833 44.185 99.002 44.12 99.1926 44.12C99.3746 44.12 99.535 44.185 99.6736 44.315C99.821 44.4363 99.8946 44.6053 99.8946 44.822C99.8946 45.0213 99.8253 45.1903 99.6866 45.329C99.548 45.4677 99.379 45.537 99.1796 45.537ZM105.017 54C104.558 54 104.146 53.8917 103.782 53.675C103.427 53.4583 103.145 53.1637 102.937 52.791C102.729 52.4097 102.625 51.9763 102.625 51.491V45.134C102.625 44.9867 102.669 44.8653 102.755 44.77C102.851 44.6747 102.972 44.627 103.119 44.627C103.267 44.627 103.388 44.6747 103.483 44.77C103.579 44.8653 103.626 44.9867 103.626 45.134V51.491C103.626 51.933 103.756 52.297 104.016 52.583C104.276 52.8603 104.61 52.999 105.017 52.999H105.368C105.507 52.999 105.62 53.0467 105.706 53.142C105.793 53.2373 105.836 53.3587 105.836 53.506C105.836 53.6533 105.784 53.7747 105.68 53.87C105.576 53.9567 105.446 54 105.29 54H105.017ZM101.78 48.02C101.65 48.02 101.542 47.981 101.455 47.903C101.369 47.8163 101.325 47.7123 101.325 47.591C101.325 47.461 101.369 47.357 101.455 47.279C101.542 47.1923 101.65 47.149 101.78 47.149H105.095C105.225 47.149 105.334 47.1923 105.42 47.279C105.507 47.357 105.55 47.461 105.55 47.591C105.55 47.7123 105.507 47.8163 105.42 47.903C105.334 47.981 105.225 48.02 105.095 48.02H101.78ZM114.875 54.065C114.199 54.065 113.588 53.909 113.042 53.597C112.505 53.285 112.076 52.8603 111.755 52.323C111.443 51.777 111.283 51.166 111.274 50.49V44.354C111.274 44.198 111.318 44.0767 111.404 43.99C111.5 43.8947 111.625 43.847 111.781 43.847C111.929 43.847 112.046 43.8947 112.132 43.99C112.228 44.0767 112.275 44.198 112.275 44.354V48.176C112.561 47.7687 112.938 47.4437 113.406 47.201C113.883 46.9497 114.412 46.824 114.992 46.824C115.66 46.824 116.258 46.9843 116.786 47.305C117.315 47.617 117.731 48.046 118.034 48.592C118.346 49.138 118.502 49.7533 118.502 50.438C118.502 51.1313 118.342 51.751 118.021 52.297C117.709 52.843 117.28 53.2763 116.734 53.597C116.188 53.909 115.569 54.065 114.875 54.065ZM114.875 53.155C115.378 53.155 115.829 53.038 116.227 52.804C116.626 52.5613 116.938 52.2363 117.163 51.829C117.397 51.4217 117.514 50.958 117.514 50.438C117.514 49.9267 117.397 49.4673 117.163 49.06C116.938 48.644 116.626 48.319 116.227 48.085C115.829 47.851 115.378 47.734 114.875 47.734C114.381 47.734 113.935 47.851 113.536 48.085C113.138 48.319 112.826 48.644 112.6 49.06C112.375 49.4673 112.262 49.9267 112.262 50.438C112.262 50.958 112.375 51.4217 112.6 51.829C112.826 52.2363 113.138 52.5613 113.536 52.804C113.935 53.038 114.381 53.155 114.875 53.155ZM123.599 54.065C122.932 54.065 122.334 53.909 121.805 53.597C121.276 53.2763 120.856 52.843 120.544 52.297C120.241 51.751 120.089 51.1357 120.089 50.451C120.089 49.7577 120.245 49.138 120.557 48.592C120.878 48.046 121.311 47.617 121.857 47.305C122.403 46.9843 123.018 46.824 123.703 46.824C124.388 46.824 124.999 46.9843 125.536 47.305C126.082 47.617 126.511 48.046 126.823 48.592C127.144 49.138 127.308 49.7577 127.317 50.451L126.914 50.763C126.914 51.387 126.767 51.9503 126.472 52.453C126.186 52.947 125.792 53.3413 125.289 53.636C124.795 53.922 124.232 54.065 123.599 54.065ZM123.703 53.155C124.206 53.155 124.652 53.038 125.042 52.804C125.441 52.57 125.753 52.2493 125.978 51.842C126.212 51.426 126.329 50.9623 126.329 50.451C126.329 49.931 126.212 49.4673 125.978 49.06C125.753 48.6527 125.441 48.332 125.042 48.098C124.652 47.8553 124.206 47.734 123.703 47.734C123.209 47.734 122.763 47.8553 122.364 48.098C121.965 48.332 121.649 48.6527 121.415 49.06C121.181 49.4673 121.064 49.931 121.064 50.451C121.064 50.9623 121.181 51.426 121.415 51.842C121.649 52.2493 121.965 52.57 122.364 52.804C122.763 53.038 123.209 53.155 123.703 53.155ZM126.81 54C126.663 54 126.541 53.9567 126.446 53.87C126.351 53.7747 126.303 53.6533 126.303 53.506V51.283L126.55 50.256L127.317 50.451V53.506C127.317 53.6533 127.269 53.7747 127.174 53.87C127.079 53.9567 126.957 54 126.81 54ZM132.436 54.065C131.751 54.065 131.14 53.909 130.603 53.597C130.074 53.2763 129.654 52.843 129.342 52.297C129.038 51.751 128.887 51.1357 128.887 50.451C128.887 49.7577 129.034 49.138 129.329 48.592C129.623 48.046 130.026 47.617 130.538 47.305C131.049 46.9843 131.638 46.824 132.306 46.824C132.834 46.824 133.32 46.928 133.762 47.136C134.212 47.344 134.607 47.656 134.945 48.072C135.04 48.176 135.075 48.2887 135.049 48.41C135.023 48.5227 134.949 48.6223 134.828 48.709C134.732 48.7783 134.624 48.8043 134.503 48.787C134.39 48.761 134.29 48.696 134.204 48.592C133.701 48.02 133.068 47.734 132.306 47.734C131.82 47.734 131.391 47.851 131.019 48.085C130.655 48.319 130.369 48.6397 130.161 49.047C129.961 49.4543 129.862 49.9223 129.862 50.451C129.862 50.971 129.97 51.4347 130.187 51.842C130.403 52.2493 130.707 52.57 131.097 52.804C131.487 53.038 131.933 53.155 132.436 53.155C132.774 53.155 133.081 53.1117 133.359 53.025C133.645 52.9297 133.896 52.7867 134.113 52.596C134.217 52.5093 134.325 52.4617 134.438 52.453C134.55 52.4443 134.654 52.479 134.75 52.557C134.854 52.6523 134.91 52.7607 134.919 52.882C134.936 53.0033 134.897 53.1073 134.802 53.194C134.169 53.7747 133.38 54.065 132.436 54.065ZM137.827 51.621L137.216 50.958L141.662 46.941C141.766 46.8457 141.874 46.8023 141.987 46.811C142.1 46.811 142.204 46.863 142.299 46.967C142.394 47.071 142.438 47.1837 142.429 47.305C142.429 47.4177 142.377 47.5173 142.273 47.604L137.827 51.621ZM137.502 54C137.355 54 137.233 53.9567 137.138 53.87C137.051 53.7747 137.008 53.6533 137.008 53.506V44.341C137.008 44.1937 137.051 44.0767 137.138 43.99C137.233 43.8947 137.355 43.847 137.502 43.847C137.649 43.847 137.766 43.8947 137.853 43.99C137.948 44.0767 137.996 44.1937 137.996 44.341V53.506C137.996 53.6533 137.948 53.7747 137.853 53.87C137.766 53.9567 137.649 54 137.502 54ZM142.312 53.935C142.199 54.0303 142.082 54.0693 141.961 54.052C141.84 54.0433 141.736 53.9827 141.649 53.87L138.75 50.308L139.452 49.684L142.377 53.285C142.464 53.389 142.503 53.5017 142.494 53.623C142.485 53.7357 142.425 53.8397 142.312 53.935ZM151.038 54C150.579 54 150.167 53.8917 149.803 53.675C149.448 53.4583 149.166 53.1637 148.958 52.791C148.75 52.4097 148.646 51.9763 148.646 51.491V45.134C148.646 44.9867 148.689 44.8653 148.776 44.77C148.871 44.6747 148.993 44.627 149.14 44.627C149.287 44.627 149.409 44.6747 149.504 44.77C149.599 44.8653 149.647 44.9867 149.647 45.134V51.491C149.647 51.933 149.777 52.297 150.037 52.583C150.297 52.8603 150.631 52.999 151.038 52.999H151.389C151.528 52.999 151.64 53.0467 151.727 53.142C151.814 53.2373 151.857 53.3587 151.857 53.506C151.857 53.6533 151.805 53.7747 151.701 53.87C151.597 53.9567 151.467 54 151.311 54H151.038ZM147.801 48.02C147.671 48.02 147.563 47.981 147.476 47.903C147.389 47.8163 147.346 47.7123 147.346 47.591C147.346 47.461 147.389 47.357 147.476 47.279C147.563 47.1923 147.671 47.149 147.801 47.149H151.116C151.246 47.149 151.354 47.1923 151.441 47.279C151.528 47.357 151.571 47.461 151.571 47.591C151.571 47.7123 151.528 47.8163 151.441 47.903C151.354 47.981 151.246 48.02 151.116 48.02H147.801ZM156.723 54.065C156.03 54.065 155.41 53.909 154.864 53.597C154.318 53.285 153.889 52.856 153.577 52.31C153.265 51.764 153.109 51.1443 153.109 50.451C153.109 49.749 153.265 49.125 153.577 48.579C153.889 48.033 154.318 47.604 154.864 47.292C155.41 46.98 156.03 46.824 156.723 46.824C157.417 46.824 158.032 46.98 158.569 47.292C159.115 47.604 159.544 48.033 159.856 48.579C160.168 49.125 160.329 49.749 160.337 50.451C160.337 51.1443 160.177 51.764 159.856 52.31C159.544 52.856 159.115 53.285 158.569 53.597C158.032 53.909 157.417 54.065 156.723 54.065ZM156.723 53.155C157.226 53.155 157.677 53.038 158.075 52.804C158.474 52.57 158.786 52.2493 159.011 51.842C159.237 51.4347 159.349 50.971 159.349 50.451C159.349 49.931 159.237 49.4673 159.011 49.06C158.786 48.644 158.474 48.319 158.075 48.085C157.677 47.851 157.226 47.734 156.723 47.734C156.221 47.734 155.77 47.851 155.371 48.085C154.973 48.319 154.656 48.644 154.422 49.06C154.197 49.4673 154.084 49.931 154.084 50.451C154.084 50.971 154.197 51.4347 154.422 51.842C154.656 52.2493 154.973 52.57 155.371 52.804C155.77 53.038 156.221 53.155 156.723 53.155ZM175.7 54C175.553 54 175.431 53.9567 175.336 53.87C175.241 53.7747 175.193 53.6533 175.193 53.506V49.762C175.193 49.1467 175.033 48.6613 174.712 48.306C174.391 47.942 173.98 47.76 173.477 47.76C172.94 47.76 172.498 47.942 172.151 48.306C171.813 48.6613 171.648 49.138 171.657 49.736H170.76C170.769 49.1553 170.894 48.644 171.137 48.202C171.38 47.76 171.713 47.4177 172.138 47.175C172.563 46.9323 173.044 46.811 173.581 46.811C174.092 46.811 174.543 46.9323 174.933 47.175C175.332 47.4177 175.639 47.76 175.856 48.202C176.081 48.644 176.194 49.164 176.194 49.762V53.506C176.194 53.6533 176.146 53.7747 176.051 53.87C175.964 53.9567 175.847 54 175.7 54ZM166.6 54C166.444 54 166.318 53.9567 166.223 53.87C166.136 53.7747 166.093 53.6533 166.093 53.506V47.396C166.093 47.2487 166.136 47.1273 166.223 47.032C166.318 46.9367 166.444 46.889 166.6 46.889C166.747 46.889 166.864 46.9367 166.951 47.032C167.046 47.1273 167.094 47.2487 167.094 47.396V53.506C167.094 53.6533 167.046 53.7747 166.951 53.87C166.864 53.9567 166.747 54 166.6 54ZM171.163 54C171.016 54 170.894 53.9567 170.799 53.87C170.704 53.7747 170.656 53.6533 170.656 53.506V49.762C170.656 49.1467 170.496 48.6613 170.175 48.306C169.854 47.942 169.443 47.76 168.94 47.76C168.403 47.76 167.961 47.9377 167.614 48.293C167.267 48.6397 167.094 49.0947 167.094 49.658H166.379C166.396 49.1033 166.518 48.6137 166.743 48.189C166.977 47.7557 167.293 47.4177 167.692 47.175C168.091 46.9323 168.541 46.811 169.044 46.811C169.555 46.811 170.006 46.9323 170.396 47.175C170.795 47.4177 171.102 47.76 171.319 48.202C171.544 48.644 171.657 49.164 171.657 49.762V53.506C171.657 53.6533 171.609 53.7747 171.514 53.87C171.427 53.9567 171.31 54 171.163 54ZM181.631 54.065C180.929 54.065 180.305 53.9133 179.759 53.61C179.222 53.298 178.797 52.869 178.485 52.323C178.182 51.777 178.03 51.153 178.03 50.451C178.03 49.7403 178.173 49.1163 178.459 48.579C178.754 48.033 179.157 47.604 179.668 47.292C180.18 46.98 180.769 46.824 181.436 46.824C182.095 46.824 182.667 46.9757 183.152 47.279C183.646 47.5737 184.028 47.9853 184.296 48.514C184.565 49.0427 184.699 49.645 184.699 50.321C184.699 50.4597 184.656 50.5723 184.569 50.659C184.483 50.737 184.37 50.776 184.231 50.776H178.706V49.944H184.335L183.776 50.347C183.785 49.8443 183.694 49.3937 183.503 48.995C183.313 48.5963 183.04 48.2843 182.684 48.059C182.338 47.8337 181.922 47.721 181.436 47.721C180.942 47.721 180.509 47.838 180.136 48.072C179.764 48.306 179.473 48.631 179.265 49.047C179.066 49.4543 178.966 49.9223 178.966 50.451C178.966 50.9797 179.079 51.4477 179.304 51.855C179.538 52.2623 179.855 52.583 180.253 52.817C180.652 53.051 181.111 53.168 181.631 53.168C181.943 53.168 182.255 53.116 182.567 53.012C182.888 52.8993 183.144 52.7607 183.334 52.596C183.43 52.518 183.538 52.479 183.659 52.479C183.781 52.4703 183.885 52.5007 183.971 52.57C184.084 52.674 184.14 52.7867 184.14 52.908C184.149 53.0293 184.101 53.1333 183.997 53.22C183.711 53.4627 183.347 53.6663 182.905 53.831C182.463 53.987 182.039 54.065 181.631 54.065Z" fill="white"/>
<path d="M26.9997 56.7577C41.2899 56.7577 52.8743 45.1733 52.8743 30.8831C52.8743 16.593 41.2899 5.00854 26.9997 5.00854C12.7096 5.00854 1.12514 16.593 1.12514 30.8831C1.12514 45.1733 12.7096 56.7577 26.9997 56.7577Z" fill="#FFDA79"/>
<path fill-rule="evenodd" clip-rule="evenodd" d="M24.6851 20.164C23.5143 20.3676 22.2417 17.3134 22.8016 17.1098C24.176 16.6516 25.6522 16.3971 27.2302 16.3971C29.8263 16.3971 32.1678 17.008 34.2549 18.2296C36.291 19.5022 37.9708 21.182 39.1416 23.32C40.3632 25.5088 40.9741 27.9013 40.9741 30.5482C40.9741 33.1952 40.3632 35.5876 39.1416 37.7765C37.869 39.9653 36.1892 41.6451 34.0003 42.9177C31.8624 44.1394 29.47 44.7502 26.823 44.7502C24.176 44.7502 21.7836 44.1394 19.6456 42.9177C17.4568 41.6451 15.777 39.9653 14.5044 37.7765C13.2827 35.5876 12.6719 33.1952 12.6719 30.5482C12.6719 30.5482 12.6719 18.2296 12.7228 18.1278L12.7228 9.27069C14.0463 8.35443 15.3698 7.69269 16.6424 7.13275L16.5405 20.3676L16.5405 23.3709C16.4896 24.338 16.5405 29.9883 16.5405 30.5482C16.5405 32.5334 16.9987 34.366 17.864 35.9949C18.7803 37.5729 20.002 38.8454 21.58 39.7617C23.158 40.7289 24.8887 41.187 26.823 41.187C28.7573 41.187 30.5389 40.7289 32.066 39.7617C33.6949 38.8454 34.9166 37.5729 35.8329 35.9949C36.6982 34.366 37.1563 32.5334 37.1563 30.5482C37.1563 28.563 36.6982 26.7305 35.8329 25.1016C34.9166 23.5236 33.6949 22.251 32.066 21.3347C30.5389 20.4185 28.7573 19.9604 26.823 19.9604C26.1103 19.9604 25.3977 20.0113 24.6851 20.164Z" fill="#418868"/>
<path fill-rule="evenodd" clip-rule="evenodd" d="M18.362 22.7237L22.3635 16.0586L26.095 21.9259L18.362 22.7237Z" fill="#418868"/>
<path fill-rule="evenodd" clip-rule="evenodd" d="M17.9608 22.4827C17.8695 22.6347 17.8719 22.8253 17.9671 22.9748C18.0622 23.1244 18.2337 23.2074 18.41 23.1892L26.143 22.3913C26.3044 22.3746 26.4456 22.2757 26.5163 22.1296C26.5869 21.9837 26.5769 21.8114 26.4899 21.6746L22.7584 15.8073C22.6714 15.6705 22.5196 15.5885 22.3575 15.5905C22.1953 15.5926 22.0458 15.6785 21.9623 15.8176L17.9608 22.4827ZM18.362 22.7236L22.3635 16.0585L26.095 21.9258L18.362 22.7236Z" fill="#418868"/>
<path fill-rule="evenodd" clip-rule="evenodd" d="M18.2029 22.8602L22.3689 15.921L26.2538 22.0295L18.2029 22.8602Z" fill="#418868"/>
<path d="M71.616 43.24C69.12 43.24 66.864 42.664 64.848 41.512C62.864 40.36 61.28 38.792 60.096 36.808C58.944 34.792 58.352 32.536 58.32 30.04V7.384C58.32 6.808 58.48 6.36 58.8 6.04C59.152 5.688 59.616 5.512 60.192 5.512C60.736 5.512 61.168 5.688 61.488 6.04C61.84 6.36 62.016 6.808 62.016 7.384V21.496C63.072 19.992 64.464 18.792 66.192 17.896C67.952 16.968 69.904 16.504 72.048 16.504C74.512 16.504 76.72 17.096 78.672 18.28C80.624 19.432 82.16 21.016 83.28 23.032C84.432 25.048 85.008 27.32 85.008 29.848C85.008 32.408 84.416 34.696 83.232 36.712C82.08 38.728 80.496 40.328 78.48 41.512C76.464 42.664 74.176 43.24 71.616 43.24ZM71.616 39.88C73.472 39.88 75.136 39.448 76.608 38.584C78.08 37.688 79.232 36.488 80.064 34.984C80.928 33.48 81.36 31.768 81.36 29.848C81.36 27.96 80.928 26.264 80.064 24.76C79.232 23.224 78.08 22.024 76.608 21.16C75.136 20.296 73.472 19.864 71.616 19.864C69.792 19.864 68.144 20.296 66.672 21.16C65.2 22.024 64.048 23.224 63.216 24.76C62.384 26.264 61.968 27.96 61.968 29.848C61.968 31.768 62.384 33.48 63.216 34.984C64.048 36.488 65.2 37.688 66.672 38.584C68.144 39.448 69.792 39.88 71.616 39.88ZM94.8975 43C94.3215 43 93.8575 42.84 93.5055 42.52C93.1855 42.168 93.0255 41.704 93.0255 41.128V18.616C93.0255 18.04 93.1855 17.592 93.5055 17.272C93.8575 16.92 94.3215 16.744 94.8975 16.744C95.4415 16.744 95.8735 16.92 96.1935 17.272C96.5455 17.592 96.7215 18.04 96.7215 18.616V41.128C96.7215 41.704 96.5455 42.168 96.1935 42.52C95.8735 42.84 95.4415 43 94.8975 43ZM94.8495 11.752C94.1455 11.752 93.5375 11.496 93.0255 10.984C92.5135 10.472 92.2575 9.848 92.2575 9.112C92.2575 8.312 92.5135 7.688 93.0255 7.24C93.5695 6.76 94.1935 6.52 94.8975 6.52C95.5695 6.52 96.1615 6.76 96.6735 7.24C97.2175 7.688 97.4895 8.312 97.4895 9.112C97.4895 9.848 97.2335 10.472 96.7215 10.984C96.2095 11.496 95.5855 11.752 94.8495 11.752ZM119.429 43.24C116.933 43.24 114.677 42.664 112.661 41.512C110.677 40.36 109.093 38.792 107.909 36.808C106.757 34.792 106.165 32.536 106.133 30.04V7.384C106.133 6.808 106.293 6.36 106.613 6.04C106.965 5.688 107.429 5.512 108.005 5.512C108.549 5.512 108.981 5.688 109.301 6.04C109.653 6.36 109.829 6.808 109.829 7.384V21.496C110.885 19.992 112.277 18.792 114.005 17.896C115.765 16.968 117.717 16.504 119.861 16.504C122.325 16.504 124.533 17.096 126.484 18.28C128.437 19.432 129.973 21.016 131.093 23.032C132.245 25.048 132.821 27.32 132.821 29.848C132.821 32.408 132.229 34.696 131.045 36.712C129.893 38.728 128.309 40.328 126.293 41.512C124.277 42.664 121.989 43.24 119.429 43.24ZM119.429 39.88C121.285 39.88 122.949 39.448 124.421 38.584C125.893 37.688 127.045 36.488 127.877 34.984C128.741 33.48 129.173 31.768 129.173 29.848C129.173 27.96 128.741 26.264 127.877 24.76C127.045 23.224 125.893 22.024 124.421 21.16C122.949 20.296 121.285 19.864 119.429 19.864C117.605 19.864 115.957 20.296 114.484 21.16C113.013 22.024 111.861 23.224 111.029 24.76C110.197 26.264 109.781 27.96 109.781 29.848C109.781 31.768 110.197 33.48 111.029 34.984C111.861 36.488 113.013 37.688 114.484 38.584C115.957 39.448 117.605 39.88 119.429 39.88ZM150.342 43C148.646 43 147.126 42.6 145.782 41.8C144.47 41 143.43 39.912 142.662 38.536C141.894 37.128 141.51 35.528 141.51 33.736V10.264C141.51 9.72 141.67 9.272 141.99 8.92C142.342 8.568 142.79 8.392 143.334 8.392C143.878 8.392 144.326 8.568 144.678 8.92C145.03 9.272 145.206 9.72 145.206 10.264V33.736C145.206 35.368 145.686 36.712 146.646 37.768C147.606 38.792 148.838 39.304 150.342 39.304H151.638C152.15 39.304 152.566 39.48 152.886 39.832C153.206 40.184 153.366 40.632 153.366 41.176C153.366 41.72 153.174 42.168 152.79 42.52C152.406 42.84 151.926 43 151.35 43H150.342ZM138.39 20.92C137.91 20.92 137.51 20.776 137.19 20.488C136.87 20.168 136.71 19.784 136.71 19.336C136.71 18.856 136.87 18.472 137.19 18.184C137.51 17.864 137.91 17.704 138.39 17.704H150.63C151.11 17.704 151.51 17.864 151.83 18.184C152.15 18.472 152.31 18.856 152.31 19.336C152.31 19.784 152.15 20.168 151.83 20.488C151.51 20.776 151.11 20.92 150.63 20.92H138.39ZM171.335 43.24C168.775 43.24 166.487 42.664 164.471 41.512C162.455 40.36 160.871 38.776 159.719 36.76C158.567 34.744 157.991 32.456 157.991 29.896C157.991 27.304 158.567 25 159.719 22.984C160.871 20.968 162.455 19.384 164.471 18.232C166.487 17.08 168.775 16.504 171.335 16.504C173.895 16.504 176.167 17.08 178.151 18.232C180.167 19.384 181.751 20.968 182.903 22.984C184.055 25 184.647 27.304 184.679 29.896C184.679 32.456 184.087 34.744 182.903 36.76C181.751 38.776 180.167 40.36 178.151 41.512C176.167 42.664 173.895 43.24 171.335 43.24ZM171.335 39.88C173.191 39.88 174.855 39.448 176.327 38.584C177.799 37.72 178.951 36.536 179.783 35.032C180.615 33.528 181.031 31.816 181.031 29.896C181.031 27.976 180.615 26.264 179.783 24.76C178.951 23.224 177.799 22.024 176.327 21.16C174.855 20.296 173.191 19.864 171.335 19.864C169.479 19.864 167.815 20.296 166.343 21.16C164.871 22.024 163.703 23.224 162.839 24.76C162.007 26.264 161.591 27.976 161.591 29.896C161.591 31.816 162.007 33.528 162.839 35.032C163.703 36.536 164.871 37.72 166.343 38.584C167.815 39.448 169.479 39.88 171.335 39.88ZM192.731 43.768C191.963 43.768 191.307 43.496 190.763 42.952C190.219 42.408 189.947 41.752 189.947 40.984C189.947 40.184 190.219 39.512 190.763 38.968C191.339 38.424 191.995 38.152 192.731 38.152C193.499 38.152 194.155 38.44 194.699 39.016C195.243 39.56 195.515 40.216 195.515 40.984C195.515 41.72 195.243 42.376 194.699 42.952C194.187 43.496 193.531 43.768 192.731 43.768ZM237.698 43C237.154 43 236.706 42.84 236.354 42.52C236.002 42.168 235.826 41.72 235.826 41.176V27.352C235.826 25.08 235.234 23.288 234.05 21.976C232.866 20.632 231.346 19.96 229.49 19.96C227.506 19.96 225.874 20.632 224.594 21.976C223.346 23.288 222.738 25.048 222.77 27.256H219.458C219.49 25.112 219.954 23.224 220.85 21.592C221.746 19.96 222.978 18.696 224.546 17.8C226.114 16.904 227.89 16.456 229.874 16.456C231.762 16.456 233.426 16.904 234.866 17.8C236.338 18.696 237.474 19.96 238.274 21.592C239.106 23.224 239.522 25.144 239.522 27.352V41.176C239.522 41.72 239.346 42.168 238.994 42.52C238.674 42.84 238.242 43 237.698 43ZM204.098 43C203.522 43 203.058 42.84 202.706 42.52C202.386 42.168 202.226 41.72 202.226 41.176V18.616C202.226 18.072 202.386 17.624 202.706 17.272C203.058 16.92 203.522 16.744 204.098 16.744C204.642 16.744 205.074 16.92 205.394 17.272C205.746 17.624 205.922 18.072 205.922 18.616V41.176C205.922 41.72 205.746 42.168 205.394 42.52C205.074 42.84 204.642 43 204.098 43ZM220.946 43C220.402 43 219.954 42.84 219.602 42.52C219.25 42.168 219.074 41.72 219.074 41.176V27.352C219.074 25.08 218.482 23.288 217.298 21.976C216.114 20.632 214.594 19.96 212.738 19.96C210.754 19.96 209.122 20.616 207.842 21.928C206.562 23.208 205.922 24.888 205.922 26.968H203.282C203.346 24.92 203.794 23.112 204.626 21.544C205.49 19.944 206.658 18.696 208.13 17.8C209.602 16.904 211.266 16.456 213.122 16.456C215.01 16.456 216.674 16.904 218.114 17.8C219.586 18.696 220.722 19.96 221.522 21.592C222.354 23.224 222.77 25.144 222.77 27.352V41.176C222.77 41.72 222.594 42.168 222.242 42.52C221.922 42.84 221.49 43 220.946 43ZM259.599 43.24C257.007 43.24 254.703 42.68 252.687 41.56C250.703 40.408 249.135 38.824 247.983 36.808C246.863 34.792 246.303 32.488 246.303 29.896C246.303 27.272 246.831 24.968 247.887 22.984C248.975 20.968 250.463 19.384 252.351 18.232C254.239 17.08 256.415 16.504 258.879 16.504C261.311 16.504 263.423 17.064 265.215 18.184C267.039 19.272 268.447 20.792 269.439 22.744C270.431 24.696 270.927 26.92 270.927 29.416C270.927 29.928 270.767 30.344 270.447 30.664C270.127 30.952 269.711 31.096 269.199 31.096H248.799V28.024H269.583L267.519 29.512C267.551 27.656 267.215 25.992 266.511 24.52C265.807 23.048 264.799 21.896 263.487 21.064C262.207 20.232 260.671 19.816 258.879 19.816C257.055 19.816 255.455 20.248 254.079 21.112C252.703 21.976 251.631 23.176 250.863 24.712C250.127 26.216 249.759 27.944 249.759 29.896C249.759 31.848 250.175 33.576 251.007 35.08C251.871 36.584 253.039 37.768 254.511 38.632C255.983 39.496 257.679 39.928 259.599 39.928C260.751 39.928 261.903 39.736 263.055 39.352C264.239 38.936 265.183 38.424 265.887 37.816C266.239 37.528 266.639 37.384 267.087 37.384C267.535 37.352 267.919 37.464 268.239 37.72C268.655 38.104 268.863 38.52 268.863 38.968C268.895 39.416 268.719 39.8 268.335 40.12C267.279 41.016 265.935 41.768 264.303 42.376C262.671 42.952 261.103 43.24 259.599 43.24Z" fill="#FFDA79"/>
</svg>
