<svg width="350" height="117" viewBox="0 0 350 117" fill="none" xmlns="http://www.w3.org/2000/svg">
<path d="M70.3145 86.0692C69.4149 86.0692 68.6076 85.8616 67.8925 85.4464C67.1774 85.0197 66.6123 84.443 66.1971 83.7164C65.7819 82.9898 65.5685 82.1709 65.557 81.2598V73.371C65.557 73.1057 65.6377 72.8924 65.7992 72.7309C65.9722 72.5694 66.1856 72.4887 66.4393 72.4887C66.7046 72.4887 66.9179 72.5694 67.0794 72.7309C67.2409 72.8924 67.3216 73.1057 67.3216 73.371V78.042C67.7253 77.5576 68.2097 77.177 68.7748 76.9002C69.3515 76.6119 69.98 76.4677 70.6605 76.4677C71.5024 76.4677 72.2579 76.6811 72.9268 77.1078C73.5957 77.523 74.1205 78.0939 74.5011 78.8205C74.8932 79.5356 75.0893 80.3487 75.0893 81.2598C75.0893 82.1709 74.8759 82.9898 74.4492 83.7164C74.034 84.443 73.4689 85.0197 72.7538 85.4464C72.0387 85.8616 71.2256 86.0692 70.3145 86.0692ZM70.3145 84.5122C70.9027 84.5122 71.4275 84.3738 71.8888 84.097C72.3501 83.8087 72.7134 83.4165 72.9787 82.9206C73.2555 82.4247 73.3939 81.8711 73.3939 81.2598C73.3939 80.637 73.2555 80.0834 72.9787 79.599C72.7134 79.1146 72.3501 78.734 71.8888 78.4572C71.4275 78.1689 70.9027 78.0247 70.3145 78.0247C69.7378 78.0247 69.2131 78.1689 68.7402 78.4572C68.2789 78.734 67.9156 79.1146 67.6503 79.599C67.385 80.0834 67.2524 80.637 67.2524 81.2598C67.2524 81.8711 67.385 82.4247 67.6503 82.9206C67.9156 83.4165 68.2789 83.8087 68.7402 84.097C69.2131 84.3738 69.7378 84.5122 70.3145 84.5122ZM78.5861 86C78.0094 86 77.7211 85.7117 77.7211 85.135V77.4019C77.7211 76.8252 78.0094 76.5369 78.5861 76.5369C79.1627 76.5369 79.4511 76.8252 79.4511 77.4019V77.7306C79.7971 77.3269 80.218 77.0098 80.714 76.7791C81.2214 76.5484 81.7693 76.4331 82.3575 76.4331C83.0495 76.4331 83.5627 76.5484 83.8972 76.7791C84.2432 76.9982 84.3758 77.2635 84.2951 77.5749C84.2374 77.8171 84.1221 77.9786 83.9491 78.0593C83.7761 78.1285 83.5742 78.14 83.3436 78.0939C82.6054 77.944 81.9423 77.9324 81.3541 78.0593C80.7659 78.1862 80.2988 78.4226 79.9528 78.7686C79.6183 79.1146 79.4511 79.5529 79.4511 80.0834V85.135C79.4511 85.7117 79.1627 86 78.5861 86ZM87.1898 86C86.9361 86 86.7227 85.9193 86.5497 85.7578C86.3883 85.5848 86.3075 85.3714 86.3075 85.1177V77.4192C86.3075 77.1539 86.3883 76.9406 86.5497 76.7791C86.7227 76.6176 86.9361 76.5369 87.1898 76.5369C87.4551 76.5369 87.6685 76.6176 87.8299 76.7791C87.9914 76.9406 88.0721 77.1539 88.0721 77.4192V85.1177C88.0721 85.3714 87.9914 85.5848 87.8299 85.7578C87.6685 85.9193 87.4551 86 87.1898 86ZM87.1898 74.9972C86.8784 74.9972 86.6074 74.8876 86.3767 74.6685C86.1576 74.4378 86.048 74.1668 86.048 73.8554C86.048 73.544 86.1576 73.2787 86.3767 73.0596C86.6074 72.8289 86.8784 72.7136 87.1898 72.7136C87.5012 72.7136 87.7665 72.8289 87.9856 73.0596C88.2163 73.2787 88.3316 73.544 88.3316 73.8554C88.3316 74.1668 88.2163 74.4378 87.9856 74.6685C87.7665 74.8876 87.5012 74.9972 87.1898 74.9972ZM92.2372 86.0173C91.9835 86.0173 91.7701 85.9366 91.5971 85.7751C91.4357 85.6021 91.3549 85.3887 91.3549 85.135V77.4192C91.3549 77.1539 91.4357 76.9406 91.5971 76.7791C91.7701 76.6176 91.9835 76.5369 92.2372 76.5369C92.5025 76.5369 92.7159 76.6176 92.8773 76.7791C93.0388 76.9406 93.1195 77.1539 93.1195 77.4192V77.6095C93.4771 77.252 93.9096 76.9694 94.417 76.7618C94.9245 76.5542 95.4723 76.4504 96.0605 76.4504C96.8563 76.4504 97.5656 76.6234 98.1884 76.9694C98.8228 77.3039 99.3187 77.7998 99.6762 78.4572C100.045 79.1146 100.23 79.9219 100.23 80.8792V85.135C100.23 85.3887 100.143 85.6021 99.9703 85.7751C99.8089 85.9366 99.6013 86.0173 99.3475 86.0173C99.0938 86.0173 98.8804 85.9366 98.7074 85.7751C98.546 85.6021 98.4652 85.3887 98.4652 85.135V80.8792C98.4652 79.8989 98.2 79.1838 97.6694 78.734C97.1504 78.2727 96.4988 78.042 95.7145 78.042C95.2301 78.042 94.7919 78.14 94.3997 78.3361C94.0076 78.5322 93.6962 78.7974 93.4655 79.1319C93.2349 79.4548 93.1195 79.8297 93.1195 80.2564V85.135C93.1195 85.3887 93.0388 85.6021 92.8773 85.7751C92.7159 85.9366 92.5025 86.0173 92.2372 86.0173ZM107.092 86.0692C106.227 86.0692 105.46 85.8674 104.791 85.4637C104.133 85.0485 103.614 84.4834 103.234 83.7683C102.853 83.0417 102.663 82.2113 102.663 81.2771C102.663 80.3314 102.865 79.501 103.268 78.7859C103.684 78.0593 104.249 77.4942 104.964 77.0905C105.679 76.6753 106.504 76.4677 107.438 76.4677C108.36 76.4677 109.179 76.6753 109.894 77.0905C110.609 77.4942 111.169 78.0593 111.572 78.7859C111.988 79.501 112.195 80.3314 112.195 81.2771V85.0139C112.195 85.925 111.993 86.7497 111.59 87.4878C111.186 88.2375 110.621 88.8314 109.894 89.2697C109.179 89.708 108.349 89.9271 107.403 89.9271C106.584 89.9271 105.817 89.7656 105.102 89.4427C104.387 89.1198 103.782 88.6469 103.286 88.0241C103.136 87.828 103.078 87.6262 103.113 87.4186C103.159 87.211 103.274 87.0438 103.459 86.9169C103.666 86.7785 103.88 86.7324 104.099 86.7785C104.329 86.8246 104.514 86.94 104.652 87.1245C104.964 87.5166 105.356 87.8223 105.829 88.0414C106.302 88.2605 106.838 88.3701 107.438 88.3701C107.991 88.3701 108.499 88.2375 108.96 87.9722C109.433 87.7069 109.808 87.3148 110.085 86.7958C110.361 86.2768 110.5 85.6425 110.5 84.8928V84.0451C110.142 84.6679 109.669 85.1638 109.081 85.5329C108.493 85.8904 107.83 86.0692 107.092 86.0692ZM107.438 84.5122C108.037 84.5122 108.568 84.3738 109.029 84.097C109.491 83.8202 109.848 83.4396 110.102 82.9552C110.367 82.4708 110.5 81.9114 110.5 81.2771C110.5 80.6428 110.367 80.0834 110.102 79.599C109.848 79.1031 109.491 78.7167 109.029 78.4399C108.568 78.1631 108.037 78.0247 107.438 78.0247C106.838 78.0247 106.307 78.1631 105.846 78.4399C105.385 78.7167 105.021 79.1031 104.756 79.599C104.491 80.0834 104.358 80.6428 104.358 81.2771C104.358 81.9114 104.491 82.4708 104.756 82.9552C105.021 83.4396 105.385 83.8202 105.846 84.097C106.307 84.3738 106.838 84.5122 107.438 84.5122ZM120.945 86C120.691 86 120.478 85.9193 120.305 85.7578C120.144 85.5848 120.063 85.3714 120.063 85.1177V77.4192C120.063 77.1539 120.144 76.9406 120.305 76.7791C120.478 76.6176 120.691 76.5369 120.945 76.5369C121.21 76.5369 121.424 76.6176 121.585 76.7791C121.747 76.9406 121.827 77.1539 121.827 77.4192V85.1177C121.827 85.3714 121.747 85.5848 121.585 85.7578C121.424 85.9193 121.21 86 120.945 86ZM120.945 74.9972C120.634 74.9972 120.363 74.8876 120.132 74.6685C119.913 74.4378 119.803 74.1668 119.803 73.8554C119.803 73.544 119.913 73.2787 120.132 73.0596C120.363 72.8289 120.634 72.7136 120.945 72.7136C121.257 72.7136 121.522 72.8289 121.741 73.0596C121.972 73.2787 122.087 73.544 122.087 73.8554C122.087 74.1668 121.972 74.4378 121.741 74.6685C121.522 74.8876 121.257 74.9972 120.945 74.9972ZM128.553 86C127.976 86 127.457 85.8558 126.996 85.5675C126.535 85.2676 126.171 84.864 125.906 84.3565C125.641 83.849 125.508 83.2781 125.508 82.6438V78.3707H124.712C124.47 78.3707 124.274 78.3015 124.124 78.1631C123.974 78.0247 123.899 77.8517 123.899 77.6441C123.899 77.4134 123.974 77.2289 124.124 77.0905C124.274 76.9521 124.47 76.8829 124.712 76.8829H125.508V74.3917C125.508 74.138 125.589 73.9304 125.75 73.7689C125.912 73.6074 126.119 73.5267 126.373 73.5267C126.627 73.5267 126.834 73.6074 126.996 73.7689C127.157 73.9304 127.238 74.138 127.238 74.3917V76.8829H128.709C128.951 76.8829 129.147 76.9521 129.297 77.0905C129.447 77.2289 129.522 77.4134 129.522 77.6441C129.522 77.8517 129.447 78.0247 129.297 78.1631C129.147 78.3015 128.951 78.3707 128.709 78.3707H127.238V82.6438C127.238 83.1051 127.365 83.4915 127.619 83.8029C127.872 84.1143 128.184 84.27 128.553 84.27H129.141C129.349 84.27 129.522 84.3507 129.66 84.5122C129.81 84.6737 129.885 84.8813 129.885 85.135C129.885 85.3887 129.787 85.5963 129.591 85.7578C129.406 85.9193 129.164 86 128.864 86H128.553ZM141.88 86.0692C140.98 86.0692 140.173 85.8616 139.458 85.4464C138.743 85.0197 138.178 84.443 137.762 83.7164C137.347 82.9898 137.134 82.1709 137.122 81.2598V73.371C137.122 73.1057 137.203 72.8924 137.364 72.7309C137.537 72.5694 137.751 72.4887 138.005 72.4887C138.27 72.4887 138.483 72.5694 138.645 72.7309C138.806 72.8924 138.887 73.1057 138.887 73.371V78.042C139.29 77.5576 139.775 77.177 140.34 76.9002C140.917 76.6119 141.545 76.4677 142.226 76.4677C143.068 76.4677 143.823 76.6811 144.492 77.1078C145.161 77.523 145.686 78.0939 146.066 78.8205C146.458 79.5356 146.655 80.3487 146.655 81.2598C146.655 82.1709 146.441 82.9898 146.014 83.7164C145.599 84.443 145.034 85.0197 144.319 85.4464C143.604 85.8616 142.791 86.0692 141.88 86.0692ZM141.88 84.5122C142.468 84.5122 142.993 84.3738 143.454 84.097C143.915 83.8087 144.279 83.4165 144.544 82.9206C144.821 82.4247 144.959 81.8711 144.959 81.2598C144.959 80.637 144.821 80.0834 144.544 79.599C144.279 79.1146 143.915 78.734 143.454 78.4572C142.993 78.1689 142.468 78.0247 141.88 78.0247C141.303 78.0247 140.778 78.1689 140.305 78.4572C139.844 78.734 139.481 79.1146 139.216 79.599C138.95 80.0834 138.818 80.637 138.818 81.2598C138.818 81.8711 138.95 82.4247 139.216 82.9206C139.481 83.4165 139.844 83.8087 140.305 84.097C140.778 84.3738 141.303 84.5122 141.88 84.5122ZM153.231 86.0692C152.389 86.0692 151.633 85.8616 150.964 85.4464C150.295 85.0197 149.765 84.4488 149.373 83.7337C148.992 83.0071 148.802 82.1882 148.802 81.2771C148.802 80.366 149.009 79.5471 149.425 78.8205C149.851 78.0939 150.422 77.523 151.137 77.1078C151.864 76.6811 152.677 76.4677 153.577 76.4677C154.476 76.4677 155.284 76.6811 155.999 77.1078C156.714 77.523 157.279 78.0939 157.694 78.8205C158.121 79.5471 158.334 80.366 158.334 81.2771V85.135C158.334 85.3887 158.248 85.6021 158.075 85.7751C157.913 85.9366 157.706 86.0173 157.452 86.0173C157.198 86.0173 156.985 85.9366 156.812 85.7751C156.65 85.6021 156.57 85.3887 156.57 85.135V84.4949C156.166 84.9793 155.676 85.3657 155.099 85.654C154.534 85.9308 153.911 86.0692 153.231 86.0692ZM153.577 84.5122C154.165 84.5122 154.69 84.3738 155.151 84.097C155.612 83.8087 155.976 83.4223 156.241 82.9379C156.506 82.442 156.639 81.8884 156.639 81.2771C156.639 80.6543 156.506 80.1007 156.241 79.6163C155.976 79.1204 155.612 78.734 155.151 78.4572C154.69 78.1689 154.165 78.0247 153.577 78.0247C153 78.0247 152.475 78.1689 152.002 78.4572C151.541 78.734 151.172 79.1204 150.895 79.6163C150.63 80.1007 150.497 80.6543 150.497 81.2771C150.497 81.8884 150.63 82.442 150.895 82.9379C151.172 83.4223 151.541 83.8087 152.002 84.097C152.475 84.3738 153 84.5122 153.577 84.5122ZM165.251 86.0692C164.328 86.0692 163.504 85.8616 162.777 85.4464C162.062 85.0197 161.497 84.4488 161.082 83.7337C160.678 83.0071 160.476 82.1882 160.476 81.2771C160.476 80.3429 160.678 79.5125 161.082 78.7859C161.485 78.0593 162.039 77.4942 162.742 77.0905C163.446 76.6753 164.253 76.4677 165.164 76.4677C166.525 76.4677 167.656 76.9867 168.555 78.0247C168.717 78.2092 168.774 78.3995 168.728 78.5956C168.682 78.7917 168.555 78.9647 168.348 79.1146C168.186 79.2299 168.007 79.2703 167.811 79.2357C167.615 79.1896 167.436 79.0858 167.275 78.9243C166.71 78.3246 166.006 78.0247 165.164 78.0247C164.276 78.0247 163.555 78.3246 163.002 78.9243C162.448 79.5125 162.171 80.2968 162.171 81.2771C162.171 81.8999 162.298 82.4535 162.552 82.9379C162.817 83.4223 163.181 83.8087 163.642 84.097C164.103 84.3738 164.64 84.5122 165.251 84.5122C166.035 84.5122 166.669 84.3104 167.154 83.9067C167.338 83.7568 167.529 83.676 167.725 83.6645C167.921 83.6414 168.094 83.6933 168.244 83.8202C168.44 83.9817 168.549 84.1662 168.572 84.3738C168.595 84.5699 168.526 84.7486 168.365 84.9101C167.534 85.6828 166.496 86.0692 165.251 86.0692ZM172.198 86C171.945 86 171.737 85.925 171.575 85.7751C171.426 85.6136 171.351 85.406 171.351 85.1523V73.3364C171.351 73.0827 171.426 72.8808 171.575 72.7309C171.737 72.5694 171.945 72.4887 172.198 72.4887C172.452 72.4887 172.654 72.5694 172.804 72.7309C172.965 72.8808 173.046 73.0827 173.046 73.3364V80.3775L177.25 76.6234C177.423 76.4619 177.613 76.387 177.821 76.3985C178.04 76.41 178.224 76.5023 178.374 76.6753C178.536 76.8483 178.611 77.0386 178.599 77.2462C178.588 77.4538 178.495 77.6383 178.322 77.7998L175.139 80.637L178.495 84.7544C178.645 84.9389 178.709 85.1408 178.686 85.3599C178.674 85.5675 178.57 85.752 178.374 85.9135C178.19 86.0634 177.982 86.1269 177.752 86.1038C177.532 86.0923 177.348 85.9942 177.198 85.8097L173.911 81.7442L173.046 82.5054V85.1523C173.046 85.406 172.965 85.6136 172.804 85.7751C172.654 85.925 172.452 86 172.198 86ZM189.711 86C189.134 86 188.615 85.8558 188.154 85.5675C187.693 85.2676 187.329 84.864 187.064 84.3565C186.799 83.849 186.666 83.2781 186.666 82.6438V78.3707H185.871C185.628 78.3707 185.432 78.3015 185.282 78.1631C185.132 78.0247 185.057 77.8517 185.057 77.6441C185.057 77.4134 185.132 77.2289 185.282 77.0905C185.432 76.9521 185.628 76.8829 185.871 76.8829H186.666V74.3917C186.666 74.138 186.747 73.9304 186.909 73.7689C187.07 73.6074 187.278 73.5267 187.531 73.5267C187.785 73.5267 187.993 73.6074 188.154 73.7689C188.316 73.9304 188.396 74.138 188.396 74.3917V76.8829H189.867C190.109 76.8829 190.305 76.9521 190.455 77.0905C190.605 77.2289 190.68 77.4134 190.68 77.6441C190.68 77.8517 190.605 78.0247 190.455 78.1631C190.305 78.3015 190.109 78.3707 189.867 78.3707H188.396V82.6438C188.396 83.1051 188.523 83.4915 188.777 83.8029C189.031 84.1143 189.342 84.27 189.711 84.27H190.299C190.507 84.27 190.68 84.3507 190.818 84.5122C190.968 84.6737 191.043 84.8813 191.043 85.135C191.043 85.3887 190.945 85.5963 190.749 85.7578C190.565 85.9193 190.322 86 190.023 86H189.711ZM197.502 86.0692C196.568 86.0692 195.744 85.8674 195.029 85.4637C194.314 85.0485 193.748 84.4834 193.333 83.7683C192.93 83.0417 192.728 82.2113 192.728 81.2771C192.728 80.3314 192.93 79.501 193.333 78.7859C193.748 78.0593 194.314 77.4942 195.029 77.0905C195.744 76.6753 196.568 76.4677 197.502 76.4677C198.425 76.4677 199.244 76.6753 199.959 77.0905C200.674 77.4942 201.234 78.0593 201.637 78.7859C202.052 79.501 202.26 80.3314 202.26 81.2771C202.26 82.2113 202.058 83.0417 201.654 83.7683C201.251 84.4834 200.691 85.0485 199.976 85.4637C199.261 85.8674 198.437 86.0692 197.502 86.0692ZM197.502 84.5122C198.102 84.5122 198.633 84.3738 199.094 84.097C199.555 83.8202 199.913 83.4396 200.167 82.9552C200.432 82.4708 200.565 81.9114 200.565 81.2771C200.565 80.6428 200.432 80.0834 200.167 79.599C199.913 79.1031 199.555 78.7167 199.094 78.4399C198.633 78.1631 198.102 78.0247 197.502 78.0247C196.903 78.0247 196.372 78.1631 195.911 78.4399C195.45 78.7167 195.086 79.1031 194.821 79.599C194.556 80.0834 194.423 80.6428 194.423 81.2771C194.423 81.9114 194.556 82.4708 194.821 82.9552C195.086 83.4396 195.45 83.8202 195.911 84.097C196.372 84.3738 196.903 84.5122 197.502 84.5122ZM210.837 86.0173C210.583 86.0173 210.37 85.9366 210.197 85.7751C210.035 85.6021 209.955 85.3887 209.955 85.135V77.4365C209.955 77.1712 210.035 76.9579 210.197 76.7964C210.37 76.6349 210.583 76.5542 210.837 76.5542C211.102 76.5542 211.315 76.6349 211.477 76.7964C211.638 76.9579 211.719 77.1597 211.719 77.4019C212.019 77.102 212.377 76.8714 212.792 76.7099C213.207 76.5369 213.657 76.4504 214.141 76.4504C215.352 76.4504 216.263 76.906 216.875 77.8171C217.209 77.3904 217.636 77.0559 218.155 76.8137C218.674 76.5715 219.256 76.4504 219.902 76.4504C220.894 76.4504 221.701 76.7733 222.324 77.4192C222.947 78.0651 223.258 78.9877 223.258 80.1872V85.135C223.258 85.3887 223.178 85.6021 223.016 85.7751C222.855 85.9366 222.641 86.0173 222.376 86.0173C222.122 86.0173 221.909 85.9366 221.736 85.7751C221.574 85.6021 221.494 85.3887 221.494 85.135V80.1872C221.494 79.4606 221.315 78.9243 220.957 78.5783C220.6 78.2208 220.133 78.042 219.556 78.042C218.956 78.042 218.46 78.2496 218.068 78.6648C217.688 79.08 217.497 79.6105 217.497 80.2564V85.135C217.497 85.3887 217.417 85.6021 217.255 85.7751C217.094 85.9366 216.88 86.0173 216.615 86.0173C216.361 86.0173 216.148 85.9366 215.975 85.7751C215.813 85.6021 215.733 85.3887 215.733 85.135V80.1872C215.733 79.4606 215.554 78.9243 215.196 78.5783C214.839 78.2208 214.372 78.042 213.795 78.042C213.195 78.042 212.699 78.2496 212.307 78.6648C211.915 79.08 211.719 79.6105 211.719 80.2564V85.135C211.719 85.3887 211.638 85.6021 211.477 85.7751C211.315 85.9366 211.102 86.0173 210.837 86.0173ZM230.636 86.0692C229.679 86.0692 228.826 85.8674 228.076 85.4637C227.338 85.0485 226.755 84.4834 226.329 83.7683C225.913 83.0417 225.706 82.2113 225.706 81.2771C225.706 80.3314 225.902 79.501 226.294 78.7859C226.698 78.0593 227.251 77.4942 227.955 77.0905C228.658 76.6753 229.466 76.4677 230.377 76.4677C231.276 76.4677 232.049 76.6695 232.695 77.0732C233.341 77.4653 233.831 78.0132 234.165 78.7167C234.511 79.4087 234.684 80.2103 234.684 81.1214C234.684 81.3405 234.61 81.5251 234.46 81.675C234.31 81.8134 234.119 81.8826 233.889 81.8826H227.315C227.442 82.6784 227.805 83.33 228.405 83.8375C229.016 84.3334 229.76 84.5814 230.636 84.5814C230.994 84.5814 231.357 84.518 231.726 84.3911C232.107 84.2527 232.412 84.097 232.643 83.924C232.816 83.7971 233.001 83.7337 233.197 83.7337C233.404 83.7222 233.583 83.7798 233.733 83.9067C233.929 84.0797 234.033 84.27 234.044 84.4776C234.056 84.6852 233.964 84.864 233.768 85.0139C233.375 85.3253 232.885 85.579 232.297 85.7751C231.72 85.9712 231.167 86.0692 230.636 86.0692ZM230.377 77.9555C229.523 77.9555 228.837 78.1919 228.318 78.6648C227.799 79.1377 227.47 79.7489 227.332 80.4986H233.093C232.989 79.7605 232.707 79.155 232.245 78.6821C231.784 78.1977 231.161 77.9555 230.377 77.9555Z" fill="white"/>
<path d="M28.9997 85.6657C44.3484 85.6657 56.7909 73.2231 56.7909 57.8745C56.7909 42.5258 44.3484 30.0833 28.9997 30.0833C13.651 30.0833 1.20848 42.5258 1.20848 57.8745C1.20848 73.2231 13.651 85.6657 28.9997 85.6657Z" fill="#FFDA79"/>
<path fill-rule="evenodd" clip-rule="evenodd" d="M26.5136 46.3613C25.2561 46.58 23.8892 43.2996 24.4906 43.0809C25.9668 42.5888 27.5524 42.3154 29.2473 42.3154C32.0356 42.3154 34.5506 42.9715 36.7922 44.2837C38.9792 45.6505 40.7834 47.4548 42.0409 49.7511C43.3531 52.102 44.0092 54.6717 44.0092 57.5148C44.0092 60.3578 43.3531 62.9275 42.0409 65.2784C40.6741 67.6294 38.8699 69.4336 36.5189 70.8005C34.2226 72.1127 31.6529 72.7687 28.8099 72.7687C25.9668 72.7687 23.3972 72.1127 21.1009 70.8005C18.7499 69.4336 16.9457 67.6294 15.5788 65.2784C14.2667 62.9275 13.6106 60.3578 13.6106 57.5148C13.6106 57.5148 13.6106 44.2837 13.6652 44.1743L13.6652 34.6611C15.0868 33.677 16.5083 32.9662 17.8751 32.3648L17.7658 46.58L17.7658 49.8057C17.7111 50.8445 17.7658 56.9133 17.7658 57.5148C17.7658 59.647 18.2578 61.6153 19.1873 63.3648C20.1714 65.0597 21.4836 66.4266 23.1785 67.4107C24.8734 68.4495 26.7323 68.9416 28.8099 68.9416C30.8875 68.9416 32.8011 68.4495 34.4413 67.4107C36.1908 66.4266 37.503 65.0597 38.4871 63.3648C39.4166 61.6153 39.9087 59.647 39.9087 57.5148C39.9087 55.3825 39.4166 53.4142 38.4871 51.6647C37.503 49.9698 36.1908 48.6029 34.4413 47.6188C32.8011 46.6347 30.8875 46.1426 28.8099 46.1426C28.0444 46.1426 27.279 46.1973 26.5136 46.3613Z" fill="#418868"/>
<path fill-rule="evenodd" clip-rule="evenodd" d="M19.7222 49.1107L24.0201 41.9518L28.028 48.2537L19.7222 49.1107Z" fill="#418868"/>
<path fill-rule="evenodd" clip-rule="evenodd" d="M19.2912 48.8518C19.1932 49.0151 19.1958 49.2197 19.298 49.3803C19.4001 49.541 19.5844 49.6301 19.7737 49.6106L28.0795 48.7536C28.2529 48.7357 28.4045 48.6294 28.4804 48.4726C28.5563 48.3158 28.5456 48.1308 28.4521 47.9838L24.4442 41.682C24.3508 41.535 24.1877 41.4469 24.0136 41.4491C23.8394 41.4513 23.6788 41.5436 23.5891 41.693L19.2912 48.8518ZM19.7221 49.1106L24.02 41.9517L28.028 48.2536L19.7221 49.1106Z" fill="#418868"/>
<path fill-rule="evenodd" clip-rule="evenodd" d="M19.5513 49.2572L24.0259 41.8041L28.1985 48.365L19.5513 49.2572Z" fill="#418868"/>
<path d="M77.52 69.192C75.024 69.192 72.784 68.616 70.8 67.464C68.816 66.28 67.248 64.68 66.096 62.664C64.944 60.648 64.352 58.376 64.32 55.848V33.96C64.32 33.224 64.544 32.632 64.992 32.184C65.472 31.736 66.064 31.512 66.768 31.512C67.504 31.512 68.096 31.736 68.544 32.184C68.992 32.632 69.216 33.224 69.216 33.96V46.92C70.336 45.576 71.68 44.52 73.248 43.752C74.848 42.952 76.592 42.552 78.48 42.552C80.816 42.552 82.912 43.144 84.768 44.328C86.624 45.48 88.08 47.064 89.136 49.08C90.224 51.064 90.768 53.32 90.768 55.848C90.768 58.376 90.176 60.648 88.992 62.664C87.84 64.68 86.272 66.28 84.288 67.464C82.304 68.616 80.048 69.192 77.52 69.192ZM77.52 64.872C79.152 64.872 80.608 64.488 81.888 63.72C83.168 62.92 84.176 61.832 84.912 60.456C85.68 59.08 86.064 57.544 86.064 55.848C86.064 54.12 85.68 52.584 84.912 51.24C84.176 49.896 83.168 48.84 81.888 48.072C80.608 47.272 79.152 46.872 77.52 46.872C75.92 46.872 74.464 47.272 73.152 48.072C71.872 48.84 70.864 49.896 70.128 51.24C69.392 52.584 69.024 54.12 69.024 55.848C69.024 57.544 69.392 59.08 70.128 60.456C70.864 61.832 71.872 62.92 73.152 63.72C74.464 64.488 75.92 64.872 77.52 64.872ZM100.998 69C100.294 69 99.702 68.776 99.222 68.328C98.774 67.848 98.55 67.256 98.55 66.552V45.192C98.55 44.456 98.774 43.864 99.222 43.416C99.702 42.968 100.294 42.744 100.998 42.744C101.734 42.744 102.326 42.968 102.774 43.416C103.222 43.864 103.446 44.456 103.446 45.192V66.552C103.446 67.256 103.222 67.848 102.774 68.328C102.326 68.776 101.734 69 100.998 69ZM100.998 38.472C100.134 38.472 99.382 38.168 98.742 37.56C98.134 36.92 97.83 36.168 97.83 35.304C97.83 34.44 98.134 33.704 98.742 33.096C99.382 32.456 100.134 32.136 100.998 32.136C101.862 32.136 102.598 32.456 103.206 33.096C103.846 33.704 104.166 34.44 104.166 35.304C104.166 36.168 103.846 36.92 103.206 37.56C102.598 38.168 101.862 38.472 100.998 38.472ZM125.754 69.192C123.258 69.192 121.018 68.616 119.034 67.464C117.05 66.28 115.482 64.68 114.33 62.664C113.178 60.648 112.586 58.376 112.554 55.848V33.96C112.554 33.224 112.778 32.632 113.226 32.184C113.706 31.736 114.298 31.512 115.002 31.512C115.738 31.512 116.33 31.736 116.778 32.184C117.226 32.632 117.45 33.224 117.45 33.96V46.92C118.57 45.576 119.914 44.52 121.482 43.752C123.082 42.952 124.826 42.552 126.714 42.552C129.05 42.552 131.146 43.144 133.002 44.328C134.858 45.48 136.314 47.064 137.37 49.08C138.458 51.064 139.002 53.32 139.002 55.848C139.002 58.376 138.41 60.648 137.226 62.664C136.074 64.68 134.506 66.28 132.522 67.464C130.538 68.616 128.282 69.192 125.754 69.192ZM125.754 64.872C127.386 64.872 128.842 64.488 130.122 63.72C131.402 62.92 132.41 61.832 133.146 60.456C133.914 59.08 134.298 57.544 134.298 55.848C134.298 54.12 133.914 52.584 133.146 51.24C132.41 49.896 131.402 48.84 130.122 48.072C128.842 47.272 127.386 46.872 125.754 46.872C124.154 46.872 122.698 47.272 121.386 48.072C120.106 48.84 119.098 49.896 118.362 51.24C117.626 52.584 117.258 54.12 117.258 55.848C117.258 57.544 117.626 59.08 118.362 60.456C119.098 61.832 120.106 62.92 121.386 63.72C122.698 64.488 124.154 64.872 125.754 64.872ZM155.856 69C154.256 69 152.816 68.6 151.536 67.8C150.256 66.968 149.248 65.848 148.512 64.44C147.776 63.032 147.408 61.448 147.408 59.688V47.832H145.2C144.528 47.832 143.984 47.64 143.568 47.256C143.152 46.872 142.944 46.392 142.944 45.816C142.944 45.176 143.152 44.664 143.568 44.28C143.984 43.896 144.528 43.704 145.2 43.704H147.408V36.792C147.408 36.088 147.632 35.512 148.08 35.064C148.528 34.616 149.104 34.392 149.808 34.392C150.512 34.392 151.088 34.616 151.536 35.064C151.984 35.512 152.208 36.088 152.208 36.792V43.704H156.288C156.96 43.704 157.504 43.896 157.92 44.28C158.336 44.664 158.544 45.176 158.544 45.816C158.544 46.392 158.336 46.872 157.92 47.256C157.504 47.64 156.96 47.832 156.288 47.832H152.208V59.688C152.208 60.968 152.56 62.04 153.264 62.904C153.968 63.768 154.832 64.2 155.856 64.2H157.488C158.064 64.2 158.544 64.424 158.928 64.872C159.344 65.32 159.552 65.896 159.552 66.6C159.552 67.304 159.28 67.88 158.736 68.328C158.224 68.776 157.552 69 156.72 69H155.856ZM177.474 69.192C174.882 69.192 172.594 68.632 170.61 67.512C168.626 66.36 167.058 64.792 165.906 62.808C164.786 60.792 164.226 58.488 164.226 55.896C164.226 53.272 164.786 50.968 165.906 48.984C167.058 46.968 168.626 45.4 170.61 44.28C172.594 43.128 174.882 42.552 177.474 42.552C180.034 42.552 182.306 43.128 184.29 44.28C186.274 45.4 187.826 46.968 188.946 48.984C190.098 50.968 190.674 53.272 190.674 55.896C190.674 58.488 190.114 60.792 188.994 62.808C187.874 64.792 186.322 66.36 184.338 67.512C182.354 68.632 180.066 69.192 177.474 69.192ZM177.474 64.872C179.138 64.872 180.61 64.488 181.89 63.72C183.17 62.952 184.162 61.896 184.866 60.552C185.602 59.208 185.97 57.656 185.97 55.896C185.97 54.136 185.602 52.584 184.866 51.24C184.162 49.864 183.17 48.792 181.89 48.024C180.61 47.256 179.138 46.872 177.474 46.872C175.81 46.872 174.338 47.256 173.058 48.024C171.778 48.792 170.77 49.864 170.034 51.24C169.298 52.584 168.93 54.136 168.93 55.896C168.93 57.656 169.298 59.208 170.034 60.552C170.77 61.896 171.778 62.952 173.058 63.72C174.338 64.488 175.81 64.872 177.474 64.872ZM199.353 69.768C198.457 69.768 197.673 69.448 197.001 68.808C196.361 68.136 196.041 67.352 196.041 66.456C196.041 65.528 196.361 64.744 197.001 64.104C197.673 63.432 198.457 63.096 199.353 63.096C200.281 63.096 201.065 63.432 201.705 64.104C202.345 64.744 202.665 65.528 202.665 66.456C202.665 67.352 202.345 68.136 201.705 68.808C201.065 69.448 200.281 69.768 199.353 69.768ZM211.846 69.048C211.142 69.048 210.55 68.824 210.07 68.376C209.622 67.896 209.398 67.304 209.398 66.6V45.24C209.398 44.504 209.622 43.912 210.07 43.464C210.55 43.016 211.142 42.792 211.846 42.792C212.582 42.792 213.174 43.016 213.622 43.464C214.07 43.912 214.294 44.472 214.294 45.144C215.126 44.312 216.118 43.672 217.27 43.224C218.422 42.744 219.67 42.504 221.014 42.504C224.374 42.504 226.902 43.768 228.598 46.296C229.526 45.112 230.71 44.184 232.15 43.512C233.59 42.84 235.206 42.504 236.998 42.504C239.75 42.504 241.99 43.4 243.718 45.192C245.446 46.984 246.31 49.544 246.31 52.872V66.6C246.31 67.304 246.086 67.896 245.638 68.376C245.19 68.824 244.598 69.048 243.862 69.048C243.158 69.048 242.566 68.824 242.086 68.376C241.638 67.896 241.414 67.304 241.414 66.6V52.872C241.414 50.856 240.918 49.368 239.926 48.408C238.934 47.416 237.638 46.92 236.038 46.92C234.374 46.92 232.998 47.496 231.91 48.648C230.854 49.8 230.326 51.272 230.326 53.064V66.6C230.326 67.304 230.102 67.896 229.654 68.376C229.206 68.824 228.614 69.048 227.878 69.048C227.174 69.048 226.582 68.824 226.102 68.376C225.654 67.896 225.43 67.304 225.43 66.6V52.872C225.43 50.856 224.934 49.368 223.942 48.408C222.95 47.416 221.654 46.92 220.054 46.92C218.39 46.92 217.014 47.496 215.926 48.648C214.838 49.8 214.294 51.272 214.294 53.064V66.6C214.294 67.304 214.07 67.896 213.622 68.376C213.174 68.824 212.582 69.048 211.846 69.048ZM266.781 69.192C264.125 69.192 261.757 68.632 259.677 67.512C257.629 66.36 256.013 64.792 254.829 62.808C253.677 60.792 253.101 58.488 253.101 55.896C253.101 53.272 253.645 50.968 254.733 48.984C255.853 46.968 257.389 45.4 259.341 44.28C261.293 43.128 263.533 42.552 266.061 42.552C268.557 42.552 270.701 43.112 272.493 44.232C274.285 45.32 275.645 46.84 276.573 48.792C277.533 50.712 278.013 52.936 278.013 55.464C278.013 56.072 277.805 56.584 277.389 57C276.973 57.384 276.445 57.576 275.805 57.576H257.565C257.917 59.784 258.925 61.592 260.589 63C262.285 64.376 264.349 65.064 266.781 65.064C267.773 65.064 268.781 64.888 269.805 64.536C270.861 64.152 271.709 63.72 272.349 63.24C272.829 62.888 273.341 62.712 273.885 62.712C274.461 62.68 274.957 62.84 275.373 63.192C275.917 63.672 276.205 64.2 276.237 64.776C276.269 65.352 276.013 65.848 275.469 66.264C274.381 67.128 273.021 67.832 271.389 68.376C269.789 68.92 268.253 69.192 266.781 69.192ZM266.061 46.68C263.693 46.68 261.789 47.336 260.349 48.648C258.909 49.96 257.997 51.656 257.613 53.736H273.597C273.309 51.688 272.525 50.008 271.245 48.696C269.965 47.352 268.237 46.68 266.061 46.68Z" fill="#FFDA79"/>
</svg>
